M48
;DRILL file {kicad (2015-03-16 BZR 5519)-product} date Mon 23 Mar 2015 09:38:16 AM CET
;FORMAT={-:-/ absolute / inch / decimal}
FMAT,2
INCH,TZ
T1C0.012
T2C0.035
T3C0.037
T4C0.040
T5C0.045
T6C0.062
T7C0.128
T8C0.130
%
G90
G05
M72
T1
X4.9825Y-3.6025
X5.525Y-3.9
X5.525Y-3.95
X5.525Y-4.
X5.525Y-4.05
X5.525Y-4.1
X5.525Y-4.15
X5.575Y-3.5825
X5.6025Y-3.5275
X5.625Y-3.5825
X5.6475Y-2.85
X5.7175Y-3.65
X5.7175Y-3.7
X5.7175Y-3.75
X5.7175Y-3.81
X5.9525Y-3.9625
X5.9675Y-3.85
X5.975Y-3.325
X5.975Y-3.3675
X6.1425Y-3.5625
X6.2275Y-3.345
T2
X4.81Y-3.35
X4.83Y-2.912
X4.83Y-2.97
X4.85Y-3.25
X4.89Y-3.35
X4.93Y-3.25
X4.97Y-3.35
X5.01Y-3.25
X5.09Y-3.25
X5.13Y-3.35
X5.17Y-3.25
X5.21Y-3.35
X5.25Y-3.25
X5.27Y-2.912
X5.27Y-2.97
X5.29Y-3.35
T3
X4.885Y-4.08
X4.925Y-4.15
X4.965Y-4.08
X5.005Y-4.15
X5.045Y-4.08
X5.085Y-4.15
X5.125Y-4.08
X5.165Y-4.15
T4
X5.535Y-2.5675
X5.635Y-2.5675
X6.235Y-4.29
X6.335Y-4.29
X6.3425Y-2.565
X6.4025Y-3.71
X6.4025Y-3.81
X6.4025Y-3.91
X6.4425Y-2.565
T5
X4.81Y-3.45
X4.91Y-3.45
X5.19Y-3.45
X5.29Y-3.45
T6
X4.7325Y-2.525
X5.3675Y-2.525
T7
X4.8Y-2.65
X5.3Y-2.65
T8
X4.775Y-4.25
X5.275Y-4.25
T0
M30
