G04 #@! TF.FileFunction,Copper,L2,Bot,Signal*
%FSLAX46Y46*%
G04 Gerber Fmt 4.6, Leading zero omitted, Abs format (unit mm)*
G04 Created by KiCad (PCBNEW (2015-03-16 BZR 5519)-product) date Mon 23 Mar 2015 09:38:02 AM CET*
%MOMM*%
G01*
G04 APERTURE LIST*
%ADD10C,0.150000*%
%ADD11C,3.556000*%
%ADD12C,1.193800*%
%ADD13R,1.193800X1.193800*%
%ADD14C,1.143000*%
%ADD15C,3.505200*%
%ADD16C,1.828800*%
%ADD17C,1.397000*%
%ADD18R,2.032000X1.727200*%
%ADD19O,2.032000X1.727200*%
%ADD20R,2.032000X2.032000*%
%ADD21O,2.032000X2.032000*%
%ADD22C,0.609600*%
%ADD23C,0.203200*%
%ADD24C,0.254000*%
G04 APERTURE END LIST*
D10*
D11*
X121285000Y-107950000D03*
X133985000Y-107950000D03*
D12*
X124079000Y-103632000D03*
X126111000Y-103632000D03*
X128143000Y-103632000D03*
X130175000Y-103632000D03*
X125095000Y-105410000D03*
X127127000Y-105410000D03*
X129159000Y-105410000D03*
D13*
X131191000Y-105410000D03*
D14*
X123190000Y-82550000D03*
X125222000Y-82550000D03*
X127254000Y-82550000D03*
X129286000Y-82550000D03*
X131318000Y-82550000D03*
X133350000Y-82550000D03*
X122174000Y-85090000D03*
X124206000Y-85090000D03*
X126238000Y-85090000D03*
X130302000Y-85090000D03*
X132334000Y-85090000D03*
X134366000Y-85090000D03*
D15*
X121920000Y-67310000D03*
X134620000Y-67310000D03*
D16*
X120205500Y-64135000D03*
X136334500Y-64135000D03*
D14*
X122682000Y-75438000D03*
X133858000Y-75438000D03*
X122682000Y-73964800D03*
X133858000Y-73964800D03*
D17*
X134366000Y-87630000D03*
X131826000Y-87630000D03*
X122174000Y-87630000D03*
X124714000Y-87630000D03*
D18*
X162623500Y-94234000D03*
D19*
X162623500Y-96774000D03*
X162623500Y-99314000D03*
D20*
X140589000Y-65214500D03*
D21*
X143129000Y-65214500D03*
D20*
X158369000Y-108966000D03*
D21*
X160909000Y-108966000D03*
D20*
X161099500Y-65151000D03*
D21*
X163639500Y-65151000D03*
D22*
X151765000Y-85534500D03*
X143446500Y-72390000D03*
X126555500Y-91503500D03*
X145224500Y-96774000D03*
X145224500Y-93980000D03*
X145224500Y-92710000D03*
X145224500Y-95250000D03*
X151193500Y-100647500D03*
X151574500Y-97790000D03*
X142875000Y-90995500D03*
X141605000Y-90995500D03*
X140335000Y-105410000D03*
X140335000Y-104140000D03*
X140335000Y-102870000D03*
X140335000Y-101600000D03*
X140335000Y-100330000D03*
X140335000Y-99060000D03*
X151765000Y-84455000D03*
X142303500Y-89598500D03*
X158178500Y-84963000D03*
X156019500Y-90487500D03*
D23*
X146812000Y-85534500D02*
X151765000Y-85534500D01*
X146050000Y-84772500D02*
X146812000Y-85534500D01*
X146050000Y-74993500D02*
X146050000Y-84772500D01*
X143446500Y-72390000D02*
X146050000Y-74993500D01*
X131191000Y-105410000D02*
X131191000Y-105283000D01*
X133096000Y-85852000D02*
X132334000Y-85090000D01*
X133096000Y-103378000D02*
X133096000Y-85852000D01*
X131191000Y-105283000D02*
X133096000Y-103378000D01*
X130175000Y-103632000D02*
X130175000Y-85217000D01*
X130175000Y-85217000D02*
X130302000Y-85090000D01*
X129286000Y-82550000D02*
X129286000Y-83883500D01*
X129159000Y-102235000D02*
X129159000Y-105410000D01*
X128778000Y-101854000D02*
X129159000Y-102235000D01*
X128778000Y-84391500D02*
X128778000Y-101854000D01*
X129286000Y-83883500D02*
X128778000Y-84391500D01*
X126111000Y-103632000D02*
X126111000Y-91948000D01*
X126111000Y-91948000D02*
X126555500Y-91503500D01*
X131318000Y-82550000D02*
X131318000Y-82804000D01*
X128143000Y-103632000D02*
X128143000Y-84391500D01*
X127254000Y-83502500D02*
X127254000Y-82550000D01*
X128143000Y-84391500D02*
X127254000Y-83502500D01*
X127127000Y-105410000D02*
X127127000Y-102552500D01*
X127571500Y-84645500D02*
X125476000Y-82550000D01*
X127571500Y-102108000D02*
X127571500Y-84645500D01*
X127127000Y-102552500D02*
X127571500Y-102108000D01*
X125476000Y-82550000D02*
X125222000Y-82550000D01*
X125095000Y-105410000D02*
X123190000Y-105410000D01*
X123444000Y-85852000D02*
X124206000Y-85090000D01*
X123190000Y-105410000D02*
X122428000Y-104648000D01*
X122428000Y-89916000D02*
X123444000Y-88900000D01*
X122428000Y-104648000D02*
X122428000Y-89916000D01*
X123444000Y-88900000D02*
X123444000Y-85852000D01*
X124079000Y-103632000D02*
X124079000Y-90805000D01*
X126238000Y-88646000D02*
X126238000Y-85090000D01*
X124079000Y-90805000D02*
X126238000Y-88646000D01*
X153225500Y-94234000D02*
X162623500Y-94234000D01*
X152590500Y-93599000D02*
X153225500Y-94234000D01*
X152590500Y-85280500D02*
X152590500Y-93599000D01*
X151765000Y-84455000D02*
X152590500Y-85280500D01*
X142303500Y-89598500D02*
X149987000Y-89598500D01*
X152654000Y-96774000D02*
X151511000Y-95631000D01*
X151511000Y-95631000D02*
X151511000Y-91122500D01*
X151511000Y-91122500D02*
X150876000Y-90487500D01*
X162623500Y-96774000D02*
X152654000Y-96774000D01*
X149987000Y-89598500D02*
X150876000Y-90487500D01*
X158178500Y-88328500D02*
X158178500Y-84963000D01*
X156019500Y-90487500D02*
X158178500Y-88328500D01*
D24*
G36*
X167175180Y-111173260D02*
X165245483Y-111173260D01*
X165245483Y-65533946D01*
X165245483Y-64768054D01*
X164976688Y-64182621D01*
X164504318Y-63744615D01*
X164022444Y-63545025D01*
X163766500Y-63664164D01*
X163766500Y-65024000D01*
X165126867Y-65024000D01*
X165245483Y-64768054D01*
X165245483Y-65533946D01*
X165126867Y-65278000D01*
X163766500Y-65278000D01*
X163766500Y-66637836D01*
X164022444Y-66756975D01*
X164504318Y-66557385D01*
X164976688Y-66119379D01*
X165245483Y-65533946D01*
X165245483Y-111173260D01*
X164306845Y-111173260D01*
X164306845Y-99314000D01*
X164192771Y-98740511D01*
X163867915Y-98254330D01*
X163553134Y-98044000D01*
X163867915Y-97833670D01*
X164192771Y-97347489D01*
X164306845Y-96774000D01*
X164192771Y-96200511D01*
X163867915Y-95714330D01*
X163852132Y-95703784D01*
X163881623Y-95698063D01*
X164094427Y-95558273D01*
X164236877Y-95347240D01*
X164286940Y-95097600D01*
X164286940Y-93370400D01*
X164239963Y-93128277D01*
X164100173Y-92915473D01*
X163889140Y-92773023D01*
X163639500Y-92722960D01*
X163512500Y-92722960D01*
X163512500Y-66637836D01*
X163512500Y-65278000D01*
X163492500Y-65278000D01*
X163492500Y-65024000D01*
X163512500Y-65024000D01*
X163512500Y-63664164D01*
X163256556Y-63545025D01*
X162774682Y-63744615D01*
X162677664Y-63834574D01*
X162576173Y-63680073D01*
X162365140Y-63537623D01*
X162115500Y-63487560D01*
X160083500Y-63487560D01*
X159841377Y-63534537D01*
X159628573Y-63674327D01*
X159486123Y-63885360D01*
X159436060Y-64135000D01*
X159436060Y-66167000D01*
X159483037Y-66409123D01*
X159622827Y-66621927D01*
X159833860Y-66764377D01*
X160083500Y-66814440D01*
X162115500Y-66814440D01*
X162357623Y-66767463D01*
X162570427Y-66627673D01*
X162678237Y-66467956D01*
X162774682Y-66557385D01*
X163256556Y-66756975D01*
X163512500Y-66637836D01*
X163512500Y-92722960D01*
X161607500Y-92722960D01*
X161365377Y-92769937D01*
X161152573Y-92909727D01*
X161010123Y-93120760D01*
X160960060Y-93370400D01*
X160960060Y-93497400D01*
X159118463Y-93497400D01*
X159118463Y-84776882D01*
X158975688Y-84431341D01*
X158711549Y-84166741D01*
X158366258Y-84023363D01*
X157992382Y-84023037D01*
X157646841Y-84165812D01*
X157382241Y-84429951D01*
X157238863Y-84775242D01*
X157238537Y-85149118D01*
X157381312Y-85494659D01*
X157441900Y-85555352D01*
X157441900Y-88023390D01*
X155917679Y-89547610D01*
X155833382Y-89547537D01*
X155487841Y-89690312D01*
X155223241Y-89954451D01*
X155079863Y-90299742D01*
X155079537Y-90673618D01*
X155222312Y-91019159D01*
X155486451Y-91283759D01*
X155831742Y-91427137D01*
X156205618Y-91427463D01*
X156551159Y-91284688D01*
X156815759Y-91020549D01*
X156959137Y-90675258D01*
X156959211Y-90589498D01*
X158699355Y-88849355D01*
X158859030Y-88610385D01*
X158915100Y-88328500D01*
X158915100Y-85555604D01*
X158974759Y-85496049D01*
X159118137Y-85150758D01*
X159118463Y-84776882D01*
X159118463Y-93497400D01*
X153530610Y-93497400D01*
X153327100Y-93293890D01*
X153327100Y-85280500D01*
X153271030Y-84998615D01*
X153111355Y-84759645D01*
X152704889Y-84353179D01*
X152704963Y-84268882D01*
X152562188Y-83923341D01*
X152298049Y-83658741D01*
X151952758Y-83515363D01*
X151578882Y-83515037D01*
X151233341Y-83657812D01*
X150968741Y-83921951D01*
X150825363Y-84267242D01*
X150825037Y-84641118D01*
X150889818Y-84797900D01*
X147117110Y-84797900D01*
X146786600Y-84467390D01*
X146786600Y-74993500D01*
X146730530Y-74711615D01*
X146570855Y-74472645D01*
X144780000Y-72681790D01*
X144780000Y-65246845D01*
X144780000Y-65182155D01*
X144654325Y-64550345D01*
X144296433Y-64014722D01*
X143760810Y-63656830D01*
X143129000Y-63531155D01*
X142497190Y-63656830D01*
X142160998Y-63881465D01*
X142143327Y-63838802D01*
X141964699Y-63660173D01*
X141731310Y-63563500D01*
X141478691Y-63563500D01*
X140874750Y-63563500D01*
X140716000Y-63722250D01*
X140716000Y-65087500D01*
X140736000Y-65087500D01*
X140736000Y-65341500D01*
X140716000Y-65341500D01*
X140716000Y-66706750D01*
X140874750Y-66865500D01*
X141478691Y-66865500D01*
X141731310Y-66865500D01*
X141964699Y-66768827D01*
X142143327Y-66590198D01*
X142160998Y-66547534D01*
X142497190Y-66772170D01*
X143129000Y-66897845D01*
X143760810Y-66772170D01*
X144296433Y-66414278D01*
X144654325Y-65878655D01*
X144780000Y-65246845D01*
X144780000Y-72681790D01*
X144386389Y-72288179D01*
X144386463Y-72203882D01*
X144243688Y-71858341D01*
X143979549Y-71593741D01*
X143634258Y-71450363D01*
X143260382Y-71450037D01*
X142914841Y-71592812D01*
X142650241Y-71856951D01*
X142506863Y-72202242D01*
X142506537Y-72576118D01*
X142649312Y-72921659D01*
X142913451Y-73186259D01*
X143258742Y-73329637D01*
X143344501Y-73329711D01*
X145313400Y-75298610D01*
X145313400Y-84772500D01*
X145369470Y-85054385D01*
X145529145Y-85293355D01*
X146291145Y-86055355D01*
X146530115Y-86215030D01*
X146530116Y-86215030D01*
X146812000Y-86271100D01*
X151172395Y-86271100D01*
X151231951Y-86330759D01*
X151577242Y-86474137D01*
X151853900Y-86474378D01*
X151853900Y-90423690D01*
X151396855Y-89966645D01*
X150507855Y-89077645D01*
X150268885Y-88917970D01*
X149987000Y-88861900D01*
X142896104Y-88861900D01*
X142836549Y-88802241D01*
X142491258Y-88658863D01*
X142117382Y-88658537D01*
X141771841Y-88801312D01*
X141507241Y-89065451D01*
X141363863Y-89410742D01*
X141363537Y-89784618D01*
X141506312Y-90130159D01*
X141770451Y-90394759D01*
X142115742Y-90538137D01*
X142489618Y-90538463D01*
X142835159Y-90395688D01*
X142895852Y-90335100D01*
X149681890Y-90335100D01*
X150355145Y-91008355D01*
X150774400Y-91427610D01*
X150774400Y-95631000D01*
X150830470Y-95912885D01*
X150990145Y-96151855D01*
X152133145Y-97294855D01*
X152372115Y-97454530D01*
X152654000Y-97510600D01*
X161163216Y-97510600D01*
X161379085Y-97833670D01*
X161693865Y-98044000D01*
X161379085Y-98254330D01*
X161054229Y-98740511D01*
X160940155Y-99314000D01*
X161054229Y-99887489D01*
X161379085Y-100373670D01*
X161865266Y-100698526D01*
X162438755Y-100812600D01*
X162808245Y-100812600D01*
X163381734Y-100698526D01*
X163867915Y-100373670D01*
X164192771Y-99887489D01*
X164306845Y-99314000D01*
X164306845Y-111173260D01*
X162514983Y-111173260D01*
X162514983Y-109348946D01*
X162514983Y-108583054D01*
X162246188Y-107997621D01*
X161773818Y-107559615D01*
X161291944Y-107360025D01*
X161036000Y-107479164D01*
X161036000Y-108839000D01*
X162396367Y-108839000D01*
X162514983Y-108583054D01*
X162514983Y-109348946D01*
X162396367Y-109093000D01*
X161036000Y-109093000D01*
X161036000Y-110452836D01*
X161291944Y-110571975D01*
X161773818Y-110372385D01*
X162246188Y-109934379D01*
X162514983Y-109348946D01*
X162514983Y-111173260D01*
X160782000Y-111173260D01*
X160782000Y-110452836D01*
X160782000Y-109093000D01*
X160762000Y-109093000D01*
X160762000Y-108839000D01*
X160782000Y-108839000D01*
X160782000Y-107479164D01*
X160526056Y-107360025D01*
X160044182Y-107559615D01*
X159947164Y-107649574D01*
X159845673Y-107495073D01*
X159634640Y-107352623D01*
X159385000Y-107302560D01*
X157353000Y-107302560D01*
X157110877Y-107349537D01*
X156898073Y-107489327D01*
X156755623Y-107700360D01*
X156705560Y-107950000D01*
X156705560Y-109982000D01*
X156752537Y-110224123D01*
X156892327Y-110436927D01*
X157103360Y-110579377D01*
X157353000Y-110629440D01*
X159385000Y-110629440D01*
X159627123Y-110582463D01*
X159839927Y-110442673D01*
X159947737Y-110282956D01*
X160044182Y-110372385D01*
X160526056Y-110571975D01*
X160782000Y-110452836D01*
X160782000Y-111173260D01*
X140462000Y-111173260D01*
X140462000Y-66706750D01*
X140462000Y-65341500D01*
X140462000Y-65087500D01*
X140462000Y-63722250D01*
X140303250Y-63563500D01*
X139699309Y-63563500D01*
X139446690Y-63563500D01*
X139213301Y-63660173D01*
X139034673Y-63838802D01*
X138938000Y-64072191D01*
X138938000Y-64928750D01*
X139096750Y-65087500D01*
X140462000Y-65087500D01*
X140462000Y-65341500D01*
X139096750Y-65341500D01*
X138938000Y-65500250D01*
X138938000Y-66356809D01*
X139034673Y-66590198D01*
X139213301Y-66768827D01*
X139446690Y-66865500D01*
X139699309Y-66865500D01*
X140303250Y-66865500D01*
X140462000Y-66706750D01*
X140462000Y-111173260D01*
X137895282Y-111173260D01*
X137895282Y-64379101D01*
X137869888Y-63763234D01*
X137683061Y-63312194D01*
X137425084Y-63224022D01*
X136514105Y-64135000D01*
X137425084Y-65045978D01*
X137683061Y-64957806D01*
X137895282Y-64379101D01*
X137895282Y-111173260D01*
X137245478Y-111173260D01*
X137245478Y-65225584D01*
X136334500Y-64314605D01*
X136320357Y-64328747D01*
X136140752Y-64149142D01*
X136154895Y-64135000D01*
X135243916Y-63224022D01*
X134985939Y-63312194D01*
X134773718Y-63890899D01*
X134799112Y-64506766D01*
X134969320Y-64917686D01*
X134114262Y-64928737D01*
X133293804Y-65268582D01*
X133103200Y-65613595D01*
X134620000Y-67130395D01*
X134634142Y-67116252D01*
X134813747Y-67295857D01*
X134799605Y-67310000D01*
X136316405Y-68826800D01*
X136661418Y-68636196D01*
X137013538Y-67754029D01*
X137001263Y-66804262D01*
X136661418Y-65983804D01*
X136316406Y-65793200D01*
X136427734Y-65681872D01*
X136706266Y-65670388D01*
X137157306Y-65483561D01*
X137245478Y-65225584D01*
X137245478Y-111173260D01*
X137013538Y-111173260D01*
X136398417Y-111173260D01*
X136398417Y-107472130D01*
X136136800Y-106838968D01*
X136136800Y-69006405D01*
X134620000Y-67489605D01*
X134440395Y-67669210D01*
X134440395Y-67310000D01*
X132923595Y-65793200D01*
X132578582Y-65983804D01*
X132226462Y-66865971D01*
X132238737Y-67815738D01*
X132578582Y-68636196D01*
X132923595Y-68826800D01*
X134440395Y-67310000D01*
X134440395Y-67669210D01*
X133103200Y-69006405D01*
X133293804Y-69351418D01*
X134175971Y-69703538D01*
X135125738Y-69691263D01*
X135946196Y-69351418D01*
X136136800Y-69006405D01*
X136136800Y-106838968D01*
X136031834Y-106584931D01*
X135353639Y-105905551D01*
X134467081Y-105537420D01*
X133507130Y-105536583D01*
X132619931Y-105903166D01*
X132415146Y-106107592D01*
X132435340Y-106006900D01*
X132435340Y-105080370D01*
X133616855Y-103898855D01*
X133776530Y-103659885D01*
X133776530Y-103659884D01*
X133832600Y-103378000D01*
X133832600Y-88852405D01*
X134099587Y-88963268D01*
X134630086Y-88963731D01*
X135120380Y-88761146D01*
X135495827Y-88386353D01*
X135699268Y-87896413D01*
X135699731Y-87365914D01*
X135497146Y-86875620D01*
X135122353Y-86500173D01*
X134632413Y-86296732D01*
X134604937Y-86296708D01*
X135048535Y-86113418D01*
X135388225Y-85774320D01*
X135572290Y-85331041D01*
X135572709Y-84851065D01*
X135389418Y-84407465D01*
X135064709Y-84082189D01*
X135064709Y-75199065D01*
X134881418Y-74755465D01*
X134827650Y-74701603D01*
X134880225Y-74649120D01*
X135064290Y-74205841D01*
X135064709Y-73725865D01*
X134881418Y-73282265D01*
X134542320Y-72942575D01*
X134099041Y-72758510D01*
X133619065Y-72758091D01*
X133175465Y-72941382D01*
X132835775Y-73280480D01*
X132651710Y-73723759D01*
X132651291Y-74203735D01*
X132834582Y-74647335D01*
X132888349Y-74701196D01*
X132835775Y-74753680D01*
X132651710Y-75196959D01*
X132651291Y-75676935D01*
X132834582Y-76120535D01*
X133173680Y-76460225D01*
X133616959Y-76644290D01*
X134096935Y-76644709D01*
X134540535Y-76461418D01*
X134880225Y-76122320D01*
X135064290Y-75679041D01*
X135064709Y-75199065D01*
X135064709Y-84082189D01*
X135050320Y-84067775D01*
X134607041Y-83883710D01*
X134127065Y-83883291D01*
X133683465Y-84066582D01*
X133349715Y-84399749D01*
X133018320Y-84067775D01*
X132575041Y-83883710D01*
X132095065Y-83883291D01*
X131651465Y-84066582D01*
X131317715Y-84399749D01*
X130986320Y-84067775D01*
X130543041Y-83883710D01*
X130063065Y-83883291D01*
X130019021Y-83901489D01*
X130022600Y-83883500D01*
X130022600Y-83519447D01*
X130302284Y-83240250D01*
X130633680Y-83572225D01*
X131076959Y-83756290D01*
X131556935Y-83756709D01*
X132000535Y-83573418D01*
X132334284Y-83240250D01*
X132665680Y-83572225D01*
X133108959Y-83756290D01*
X133588935Y-83756709D01*
X134032535Y-83573418D01*
X134372225Y-83234320D01*
X134556290Y-82791041D01*
X134556709Y-82311065D01*
X134373418Y-81867465D01*
X134034320Y-81527775D01*
X133591041Y-81343710D01*
X133111065Y-81343291D01*
X132667465Y-81526582D01*
X132333715Y-81859749D01*
X132002320Y-81527775D01*
X131559041Y-81343710D01*
X131079065Y-81343291D01*
X130635465Y-81526582D01*
X130301715Y-81859749D01*
X129970320Y-81527775D01*
X129527041Y-81343710D01*
X129047065Y-81343291D01*
X128603465Y-81526582D01*
X128269715Y-81859749D01*
X127938320Y-81527775D01*
X127495041Y-81343710D01*
X127015065Y-81343291D01*
X126571465Y-81526582D01*
X126237715Y-81859749D01*
X125906320Y-81527775D01*
X125463041Y-81343710D01*
X124983065Y-81343291D01*
X124539465Y-81526582D01*
X124313538Y-81752114D01*
X124313538Y-67754029D01*
X124301263Y-66804262D01*
X123961418Y-65983804D01*
X123616405Y-65793200D01*
X123436800Y-65972805D01*
X123436800Y-65613595D01*
X123246196Y-65268582D01*
X122364029Y-64916462D01*
X121565437Y-64926783D01*
X121766282Y-64379101D01*
X121740888Y-63763234D01*
X121554061Y-63312194D01*
X121296084Y-63224022D01*
X120385105Y-64135000D01*
X120399247Y-64149142D01*
X120219642Y-64328747D01*
X120205500Y-64314605D01*
X119294522Y-65225584D01*
X119382694Y-65483561D01*
X119961399Y-65695782D01*
X120119649Y-65689256D01*
X120223593Y-65793200D01*
X119878582Y-65983804D01*
X119526462Y-66865971D01*
X119538737Y-67815738D01*
X119878582Y-68636196D01*
X120223595Y-68826800D01*
X121740395Y-67310000D01*
X121726252Y-67295857D01*
X121905857Y-67116252D01*
X121920000Y-67130395D01*
X123436800Y-65613595D01*
X123436800Y-65972805D01*
X122099605Y-67310000D01*
X123616405Y-68826800D01*
X123961418Y-68636196D01*
X124313538Y-67754029D01*
X124313538Y-81752114D01*
X124205715Y-81859749D01*
X123888709Y-81542189D01*
X123888709Y-75199065D01*
X123705418Y-74755465D01*
X123651650Y-74701603D01*
X123704225Y-74649120D01*
X123888290Y-74205841D01*
X123888709Y-73725865D01*
X123705418Y-73282265D01*
X123436800Y-73013178D01*
X123436800Y-69006405D01*
X121920000Y-67489605D01*
X121740395Y-67669210D01*
X120403200Y-69006405D01*
X120593804Y-69351418D01*
X121475971Y-69703538D01*
X122425738Y-69691263D01*
X123246196Y-69351418D01*
X123436800Y-69006405D01*
X123436800Y-73013178D01*
X123366320Y-72942575D01*
X122923041Y-72758510D01*
X122443065Y-72758091D01*
X121999465Y-72941382D01*
X121659775Y-73280480D01*
X121475710Y-73723759D01*
X121475291Y-74203735D01*
X121658582Y-74647335D01*
X121712349Y-74701196D01*
X121659775Y-74753680D01*
X121475710Y-75196959D01*
X121475291Y-75676935D01*
X121658582Y-76120535D01*
X121997680Y-76460225D01*
X122440959Y-76644290D01*
X122920935Y-76644709D01*
X123364535Y-76461418D01*
X123704225Y-76122320D01*
X123888290Y-75679041D01*
X123888709Y-75199065D01*
X123888709Y-81542189D01*
X123874320Y-81527775D01*
X123431041Y-81343710D01*
X122951065Y-81343291D01*
X122507465Y-81526582D01*
X122167775Y-81865680D01*
X121983710Y-82308959D01*
X121983291Y-82788935D01*
X122166582Y-83232535D01*
X122505680Y-83572225D01*
X122948959Y-83756290D01*
X123428935Y-83756709D01*
X123872535Y-83573418D01*
X124206284Y-83240250D01*
X124537680Y-83572225D01*
X124980959Y-83756290D01*
X125460935Y-83756709D01*
X125588351Y-83704061D01*
X125835262Y-83950972D01*
X125555465Y-84066582D01*
X125221715Y-84399749D01*
X124890320Y-84067775D01*
X124447041Y-83883710D01*
X123967065Y-83883291D01*
X123523465Y-84066582D01*
X123189715Y-84399749D01*
X122858320Y-84067775D01*
X122415041Y-83883710D01*
X121935065Y-83883291D01*
X121491465Y-84066582D01*
X121151775Y-84405680D01*
X120967710Y-84848959D01*
X120967291Y-85328935D01*
X121150582Y-85772535D01*
X121489680Y-86112225D01*
X121932956Y-86296289D01*
X121909914Y-86296269D01*
X121419620Y-86498854D01*
X121044173Y-86873647D01*
X120840732Y-87363587D01*
X120840269Y-87894086D01*
X121042854Y-88384380D01*
X121417647Y-88759827D01*
X121907587Y-88963268D01*
X122338645Y-88963644D01*
X121907145Y-89395145D01*
X121747470Y-89634115D01*
X121691400Y-89916000D01*
X121691400Y-104648000D01*
X121747470Y-104929885D01*
X121907145Y-105168855D01*
X122636883Y-105898593D01*
X121767081Y-105537420D01*
X120807130Y-105536583D01*
X119919931Y-105903166D01*
X119240551Y-106581361D01*
X118872420Y-107467919D01*
X118871583Y-108427870D01*
X119238166Y-109315069D01*
X119916361Y-109994449D01*
X120802919Y-110362580D01*
X121762870Y-110363417D01*
X122650069Y-109996834D01*
X123329449Y-109318639D01*
X123697580Y-108432081D01*
X123698417Y-107472130D01*
X123331834Y-106584931D01*
X122698437Y-105950427D01*
X122908115Y-106090530D01*
X122908116Y-106090530D01*
X123190000Y-106146600D01*
X124089664Y-106146600D01*
X124396274Y-106453745D01*
X124848885Y-106641685D01*
X125338965Y-106642113D01*
X125791903Y-106454963D01*
X126111252Y-106136170D01*
X126428274Y-106453745D01*
X126880885Y-106641685D01*
X127370965Y-106642113D01*
X127823903Y-106454963D01*
X128143252Y-106136170D01*
X128460274Y-106453745D01*
X128912885Y-106641685D01*
X129402965Y-106642113D01*
X129855903Y-106454963D01*
X130020792Y-106290361D01*
X130133427Y-106461827D01*
X130344460Y-106604277D01*
X130594100Y-106654340D01*
X131787900Y-106654340D01*
X131920968Y-106628521D01*
X131572420Y-107467919D01*
X131571583Y-108427870D01*
X131938166Y-109315069D01*
X132616361Y-109994449D01*
X133502919Y-110362580D01*
X134462870Y-110363417D01*
X135350069Y-109996834D01*
X136029449Y-109318639D01*
X136397580Y-108432081D01*
X136398417Y-107472130D01*
X136398417Y-111173260D01*
X118826280Y-111173260D01*
X118826280Y-64883788D01*
X118856939Y-64957806D01*
X119114916Y-65045978D01*
X120025895Y-64135000D01*
X119114916Y-63224022D01*
X118856939Y-63312194D01*
X118826280Y-63395797D01*
X118826280Y-62824360D01*
X119369733Y-62824360D01*
X119294522Y-63044416D01*
X120205500Y-63955395D01*
X121116478Y-63044416D01*
X121041266Y-62824360D01*
X135498733Y-62824360D01*
X135423522Y-63044416D01*
X136334500Y-63955395D01*
X137245478Y-63044416D01*
X137170266Y-62824360D01*
X167175180Y-62824360D01*
X167175180Y-111173260D01*
X167175180Y-111173260D01*
G37*
X167175180Y-111173260D02*
X165245483Y-111173260D01*
X165245483Y-65533946D01*
X165245483Y-64768054D01*
X164976688Y-64182621D01*
X164504318Y-63744615D01*
X164022444Y-63545025D01*
X163766500Y-63664164D01*
X163766500Y-65024000D01*
X165126867Y-65024000D01*
X165245483Y-64768054D01*
X165245483Y-65533946D01*
X165126867Y-65278000D01*
X163766500Y-65278000D01*
X163766500Y-66637836D01*
X164022444Y-66756975D01*
X164504318Y-66557385D01*
X164976688Y-66119379D01*
X165245483Y-65533946D01*
X165245483Y-111173260D01*
X164306845Y-111173260D01*
X164306845Y-99314000D01*
X164192771Y-98740511D01*
X163867915Y-98254330D01*
X163553134Y-98044000D01*
X163867915Y-97833670D01*
X164192771Y-97347489D01*
X164306845Y-96774000D01*
X164192771Y-96200511D01*
X163867915Y-95714330D01*
X163852132Y-95703784D01*
X163881623Y-95698063D01*
X164094427Y-95558273D01*
X164236877Y-95347240D01*
X164286940Y-95097600D01*
X164286940Y-93370400D01*
X164239963Y-93128277D01*
X164100173Y-92915473D01*
X163889140Y-92773023D01*
X163639500Y-92722960D01*
X163512500Y-92722960D01*
X163512500Y-66637836D01*
X163512500Y-65278000D01*
X163492500Y-65278000D01*
X163492500Y-65024000D01*
X163512500Y-65024000D01*
X163512500Y-63664164D01*
X163256556Y-63545025D01*
X162774682Y-63744615D01*
X162677664Y-63834574D01*
X162576173Y-63680073D01*
X162365140Y-63537623D01*
X162115500Y-63487560D01*
X160083500Y-63487560D01*
X159841377Y-63534537D01*
X159628573Y-63674327D01*
X159486123Y-63885360D01*
X159436060Y-64135000D01*
X159436060Y-66167000D01*
X159483037Y-66409123D01*
X159622827Y-66621927D01*
X159833860Y-66764377D01*
X160083500Y-66814440D01*
X162115500Y-66814440D01*
X162357623Y-66767463D01*
X162570427Y-66627673D01*
X162678237Y-66467956D01*
X162774682Y-66557385D01*
X163256556Y-66756975D01*
X163512500Y-66637836D01*
X163512500Y-92722960D01*
X161607500Y-92722960D01*
X161365377Y-92769937D01*
X161152573Y-92909727D01*
X161010123Y-93120760D01*
X160960060Y-93370400D01*
X160960060Y-93497400D01*
X159118463Y-93497400D01*
X159118463Y-84776882D01*
X158975688Y-84431341D01*
X158711549Y-84166741D01*
X158366258Y-84023363D01*
X157992382Y-84023037D01*
X157646841Y-84165812D01*
X157382241Y-84429951D01*
X157238863Y-84775242D01*
X157238537Y-85149118D01*
X157381312Y-85494659D01*
X157441900Y-85555352D01*
X157441900Y-88023390D01*
X155917679Y-89547610D01*
X155833382Y-89547537D01*
X155487841Y-89690312D01*
X155223241Y-89954451D01*
X155079863Y-90299742D01*
X155079537Y-90673618D01*
X155222312Y-91019159D01*
X155486451Y-91283759D01*
X155831742Y-91427137D01*
X156205618Y-91427463D01*
X156551159Y-91284688D01*
X156815759Y-91020549D01*
X156959137Y-90675258D01*
X156959211Y-90589498D01*
X158699355Y-88849355D01*
X158859030Y-88610385D01*
X158915100Y-88328500D01*
X158915100Y-85555604D01*
X158974759Y-85496049D01*
X159118137Y-85150758D01*
X159118463Y-84776882D01*
X159118463Y-93497400D01*
X153530610Y-93497400D01*
X153327100Y-93293890D01*
X153327100Y-85280500D01*
X153271030Y-84998615D01*
X153111355Y-84759645D01*
X152704889Y-84353179D01*
X152704963Y-84268882D01*
X152562188Y-83923341D01*
X152298049Y-83658741D01*
X151952758Y-83515363D01*
X151578882Y-83515037D01*
X151233341Y-83657812D01*
X150968741Y-83921951D01*
X150825363Y-84267242D01*
X150825037Y-84641118D01*
X150889818Y-84797900D01*
X147117110Y-84797900D01*
X146786600Y-84467390D01*
X146786600Y-74993500D01*
X146730530Y-74711615D01*
X146570855Y-74472645D01*
X144780000Y-72681790D01*
X144780000Y-65246845D01*
X144780000Y-65182155D01*
X144654325Y-64550345D01*
X144296433Y-64014722D01*
X143760810Y-63656830D01*
X143129000Y-63531155D01*
X142497190Y-63656830D01*
X142160998Y-63881465D01*
X142143327Y-63838802D01*
X141964699Y-63660173D01*
X141731310Y-63563500D01*
X141478691Y-63563500D01*
X140874750Y-63563500D01*
X140716000Y-63722250D01*
X140716000Y-65087500D01*
X140736000Y-65087500D01*
X140736000Y-65341500D01*
X140716000Y-65341500D01*
X140716000Y-66706750D01*
X140874750Y-66865500D01*
X141478691Y-66865500D01*
X141731310Y-66865500D01*
X141964699Y-66768827D01*
X142143327Y-66590198D01*
X142160998Y-66547534D01*
X142497190Y-66772170D01*
X143129000Y-66897845D01*
X143760810Y-66772170D01*
X144296433Y-66414278D01*
X144654325Y-65878655D01*
X144780000Y-65246845D01*
X144780000Y-72681790D01*
X144386389Y-72288179D01*
X144386463Y-72203882D01*
X144243688Y-71858341D01*
X143979549Y-71593741D01*
X143634258Y-71450363D01*
X143260382Y-71450037D01*
X142914841Y-71592812D01*
X142650241Y-71856951D01*
X142506863Y-72202242D01*
X142506537Y-72576118D01*
X142649312Y-72921659D01*
X142913451Y-73186259D01*
X143258742Y-73329637D01*
X143344501Y-73329711D01*
X145313400Y-75298610D01*
X145313400Y-84772500D01*
X145369470Y-85054385D01*
X145529145Y-85293355D01*
X146291145Y-86055355D01*
X146530115Y-86215030D01*
X146530116Y-86215030D01*
X146812000Y-86271100D01*
X151172395Y-86271100D01*
X151231951Y-86330759D01*
X151577242Y-86474137D01*
X151853900Y-86474378D01*
X151853900Y-90423690D01*
X151396855Y-89966645D01*
X150507855Y-89077645D01*
X150268885Y-88917970D01*
X149987000Y-88861900D01*
X142896104Y-88861900D01*
X142836549Y-88802241D01*
X142491258Y-88658863D01*
X142117382Y-88658537D01*
X141771841Y-88801312D01*
X141507241Y-89065451D01*
X141363863Y-89410742D01*
X141363537Y-89784618D01*
X141506312Y-90130159D01*
X141770451Y-90394759D01*
X142115742Y-90538137D01*
X142489618Y-90538463D01*
X142835159Y-90395688D01*
X142895852Y-90335100D01*
X149681890Y-90335100D01*
X150355145Y-91008355D01*
X150774400Y-91427610D01*
X150774400Y-95631000D01*
X150830470Y-95912885D01*
X150990145Y-96151855D01*
X152133145Y-97294855D01*
X152372115Y-97454530D01*
X152654000Y-97510600D01*
X161163216Y-97510600D01*
X161379085Y-97833670D01*
X161693865Y-98044000D01*
X161379085Y-98254330D01*
X161054229Y-98740511D01*
X160940155Y-99314000D01*
X161054229Y-99887489D01*
X161379085Y-100373670D01*
X161865266Y-100698526D01*
X162438755Y-100812600D01*
X162808245Y-100812600D01*
X163381734Y-100698526D01*
X163867915Y-100373670D01*
X164192771Y-99887489D01*
X164306845Y-99314000D01*
X164306845Y-111173260D01*
X162514983Y-111173260D01*
X162514983Y-109348946D01*
X162514983Y-108583054D01*
X162246188Y-107997621D01*
X161773818Y-107559615D01*
X161291944Y-107360025D01*
X161036000Y-107479164D01*
X161036000Y-108839000D01*
X162396367Y-108839000D01*
X162514983Y-108583054D01*
X162514983Y-109348946D01*
X162396367Y-109093000D01*
X161036000Y-109093000D01*
X161036000Y-110452836D01*
X161291944Y-110571975D01*
X161773818Y-110372385D01*
X162246188Y-109934379D01*
X162514983Y-109348946D01*
X162514983Y-111173260D01*
X160782000Y-111173260D01*
X160782000Y-110452836D01*
X160782000Y-109093000D01*
X160762000Y-109093000D01*
X160762000Y-108839000D01*
X160782000Y-108839000D01*
X160782000Y-107479164D01*
X160526056Y-107360025D01*
X160044182Y-107559615D01*
X159947164Y-107649574D01*
X159845673Y-107495073D01*
X159634640Y-107352623D01*
X159385000Y-107302560D01*
X157353000Y-107302560D01*
X157110877Y-107349537D01*
X156898073Y-107489327D01*
X156755623Y-107700360D01*
X156705560Y-107950000D01*
X156705560Y-109982000D01*
X156752537Y-110224123D01*
X156892327Y-110436927D01*
X157103360Y-110579377D01*
X157353000Y-110629440D01*
X159385000Y-110629440D01*
X159627123Y-110582463D01*
X159839927Y-110442673D01*
X159947737Y-110282956D01*
X160044182Y-110372385D01*
X160526056Y-110571975D01*
X160782000Y-110452836D01*
X160782000Y-111173260D01*
X140462000Y-111173260D01*
X140462000Y-66706750D01*
X140462000Y-65341500D01*
X140462000Y-65087500D01*
X140462000Y-63722250D01*
X140303250Y-63563500D01*
X139699309Y-63563500D01*
X139446690Y-63563500D01*
X139213301Y-63660173D01*
X139034673Y-63838802D01*
X138938000Y-64072191D01*
X138938000Y-64928750D01*
X139096750Y-65087500D01*
X140462000Y-65087500D01*
X140462000Y-65341500D01*
X139096750Y-65341500D01*
X138938000Y-65500250D01*
X138938000Y-66356809D01*
X139034673Y-66590198D01*
X139213301Y-66768827D01*
X139446690Y-66865500D01*
X139699309Y-66865500D01*
X140303250Y-66865500D01*
X140462000Y-66706750D01*
X140462000Y-111173260D01*
X137895282Y-111173260D01*
X137895282Y-64379101D01*
X137869888Y-63763234D01*
X137683061Y-63312194D01*
X137425084Y-63224022D01*
X136514105Y-64135000D01*
X137425084Y-65045978D01*
X137683061Y-64957806D01*
X137895282Y-64379101D01*
X137895282Y-111173260D01*
X137245478Y-111173260D01*
X137245478Y-65225584D01*
X136334500Y-64314605D01*
X136320357Y-64328747D01*
X136140752Y-64149142D01*
X136154895Y-64135000D01*
X135243916Y-63224022D01*
X134985939Y-63312194D01*
X134773718Y-63890899D01*
X134799112Y-64506766D01*
X134969320Y-64917686D01*
X134114262Y-64928737D01*
X133293804Y-65268582D01*
X133103200Y-65613595D01*
X134620000Y-67130395D01*
X134634142Y-67116252D01*
X134813747Y-67295857D01*
X134799605Y-67310000D01*
X136316405Y-68826800D01*
X136661418Y-68636196D01*
X137013538Y-67754029D01*
X137001263Y-66804262D01*
X136661418Y-65983804D01*
X136316406Y-65793200D01*
X136427734Y-65681872D01*
X136706266Y-65670388D01*
X137157306Y-65483561D01*
X137245478Y-65225584D01*
X137245478Y-111173260D01*
X137013538Y-111173260D01*
X136398417Y-111173260D01*
X136398417Y-107472130D01*
X136136800Y-106838968D01*
X136136800Y-69006405D01*
X134620000Y-67489605D01*
X134440395Y-67669210D01*
X134440395Y-67310000D01*
X132923595Y-65793200D01*
X132578582Y-65983804D01*
X132226462Y-66865971D01*
X132238737Y-67815738D01*
X132578582Y-68636196D01*
X132923595Y-68826800D01*
X134440395Y-67310000D01*
X134440395Y-67669210D01*
X133103200Y-69006405D01*
X133293804Y-69351418D01*
X134175971Y-69703538D01*
X135125738Y-69691263D01*
X135946196Y-69351418D01*
X136136800Y-69006405D01*
X136136800Y-106838968D01*
X136031834Y-106584931D01*
X135353639Y-105905551D01*
X134467081Y-105537420D01*
X133507130Y-105536583D01*
X132619931Y-105903166D01*
X132415146Y-106107592D01*
X132435340Y-106006900D01*
X132435340Y-105080370D01*
X133616855Y-103898855D01*
X133776530Y-103659885D01*
X133776530Y-103659884D01*
X133832600Y-103378000D01*
X133832600Y-88852405D01*
X134099587Y-88963268D01*
X134630086Y-88963731D01*
X135120380Y-88761146D01*
X135495827Y-88386353D01*
X135699268Y-87896413D01*
X135699731Y-87365914D01*
X135497146Y-86875620D01*
X135122353Y-86500173D01*
X134632413Y-86296732D01*
X134604937Y-86296708D01*
X135048535Y-86113418D01*
X135388225Y-85774320D01*
X135572290Y-85331041D01*
X135572709Y-84851065D01*
X135389418Y-84407465D01*
X135064709Y-84082189D01*
X135064709Y-75199065D01*
X134881418Y-74755465D01*
X134827650Y-74701603D01*
X134880225Y-74649120D01*
X135064290Y-74205841D01*
X135064709Y-73725865D01*
X134881418Y-73282265D01*
X134542320Y-72942575D01*
X134099041Y-72758510D01*
X133619065Y-72758091D01*
X133175465Y-72941382D01*
X132835775Y-73280480D01*
X132651710Y-73723759D01*
X132651291Y-74203735D01*
X132834582Y-74647335D01*
X132888349Y-74701196D01*
X132835775Y-74753680D01*
X132651710Y-75196959D01*
X132651291Y-75676935D01*
X132834582Y-76120535D01*
X133173680Y-76460225D01*
X133616959Y-76644290D01*
X134096935Y-76644709D01*
X134540535Y-76461418D01*
X134880225Y-76122320D01*
X135064290Y-75679041D01*
X135064709Y-75199065D01*
X135064709Y-84082189D01*
X135050320Y-84067775D01*
X134607041Y-83883710D01*
X134127065Y-83883291D01*
X133683465Y-84066582D01*
X133349715Y-84399749D01*
X133018320Y-84067775D01*
X132575041Y-83883710D01*
X132095065Y-83883291D01*
X131651465Y-84066582D01*
X131317715Y-84399749D01*
X130986320Y-84067775D01*
X130543041Y-83883710D01*
X130063065Y-83883291D01*
X130019021Y-83901489D01*
X130022600Y-83883500D01*
X130022600Y-83519447D01*
X130302284Y-83240250D01*
X130633680Y-83572225D01*
X131076959Y-83756290D01*
X131556935Y-83756709D01*
X132000535Y-83573418D01*
X132334284Y-83240250D01*
X132665680Y-83572225D01*
X133108959Y-83756290D01*
X133588935Y-83756709D01*
X134032535Y-83573418D01*
X134372225Y-83234320D01*
X134556290Y-82791041D01*
X134556709Y-82311065D01*
X134373418Y-81867465D01*
X134034320Y-81527775D01*
X133591041Y-81343710D01*
X133111065Y-81343291D01*
X132667465Y-81526582D01*
X132333715Y-81859749D01*
X132002320Y-81527775D01*
X131559041Y-81343710D01*
X131079065Y-81343291D01*
X130635465Y-81526582D01*
X130301715Y-81859749D01*
X129970320Y-81527775D01*
X129527041Y-81343710D01*
X129047065Y-81343291D01*
X128603465Y-81526582D01*
X128269715Y-81859749D01*
X127938320Y-81527775D01*
X127495041Y-81343710D01*
X127015065Y-81343291D01*
X126571465Y-81526582D01*
X126237715Y-81859749D01*
X125906320Y-81527775D01*
X125463041Y-81343710D01*
X124983065Y-81343291D01*
X124539465Y-81526582D01*
X124313538Y-81752114D01*
X124313538Y-67754029D01*
X124301263Y-66804262D01*
X123961418Y-65983804D01*
X123616405Y-65793200D01*
X123436800Y-65972805D01*
X123436800Y-65613595D01*
X123246196Y-65268582D01*
X122364029Y-64916462D01*
X121565437Y-64926783D01*
X121766282Y-64379101D01*
X121740888Y-63763234D01*
X121554061Y-63312194D01*
X121296084Y-63224022D01*
X120385105Y-64135000D01*
X120399247Y-64149142D01*
X120219642Y-64328747D01*
X120205500Y-64314605D01*
X119294522Y-65225584D01*
X119382694Y-65483561D01*
X119961399Y-65695782D01*
X120119649Y-65689256D01*
X120223593Y-65793200D01*
X119878582Y-65983804D01*
X119526462Y-66865971D01*
X119538737Y-67815738D01*
X119878582Y-68636196D01*
X120223595Y-68826800D01*
X121740395Y-67310000D01*
X121726252Y-67295857D01*
X121905857Y-67116252D01*
X121920000Y-67130395D01*
X123436800Y-65613595D01*
X123436800Y-65972805D01*
X122099605Y-67310000D01*
X123616405Y-68826800D01*
X123961418Y-68636196D01*
X124313538Y-67754029D01*
X124313538Y-81752114D01*
X124205715Y-81859749D01*
X123888709Y-81542189D01*
X123888709Y-75199065D01*
X123705418Y-74755465D01*
X123651650Y-74701603D01*
X123704225Y-74649120D01*
X123888290Y-74205841D01*
X123888709Y-73725865D01*
X123705418Y-73282265D01*
X123436800Y-73013178D01*
X123436800Y-69006405D01*
X121920000Y-67489605D01*
X121740395Y-67669210D01*
X120403200Y-69006405D01*
X120593804Y-69351418D01*
X121475971Y-69703538D01*
X122425738Y-69691263D01*
X123246196Y-69351418D01*
X123436800Y-69006405D01*
X123436800Y-73013178D01*
X123366320Y-72942575D01*
X122923041Y-72758510D01*
X122443065Y-72758091D01*
X121999465Y-72941382D01*
X121659775Y-73280480D01*
X121475710Y-73723759D01*
X121475291Y-74203735D01*
X121658582Y-74647335D01*
X121712349Y-74701196D01*
X121659775Y-74753680D01*
X121475710Y-75196959D01*
X121475291Y-75676935D01*
X121658582Y-76120535D01*
X121997680Y-76460225D01*
X122440959Y-76644290D01*
X122920935Y-76644709D01*
X123364535Y-76461418D01*
X123704225Y-76122320D01*
X123888290Y-75679041D01*
X123888709Y-75199065D01*
X123888709Y-81542189D01*
X123874320Y-81527775D01*
X123431041Y-81343710D01*
X122951065Y-81343291D01*
X122507465Y-81526582D01*
X122167775Y-81865680D01*
X121983710Y-82308959D01*
X121983291Y-82788935D01*
X122166582Y-83232535D01*
X122505680Y-83572225D01*
X122948959Y-83756290D01*
X123428935Y-83756709D01*
X123872535Y-83573418D01*
X124206284Y-83240250D01*
X124537680Y-83572225D01*
X124980959Y-83756290D01*
X125460935Y-83756709D01*
X125588351Y-83704061D01*
X125835262Y-83950972D01*
X125555465Y-84066582D01*
X125221715Y-84399749D01*
X124890320Y-84067775D01*
X124447041Y-83883710D01*
X123967065Y-83883291D01*
X123523465Y-84066582D01*
X123189715Y-84399749D01*
X122858320Y-84067775D01*
X122415041Y-83883710D01*
X121935065Y-83883291D01*
X121491465Y-84066582D01*
X121151775Y-84405680D01*
X120967710Y-84848959D01*
X120967291Y-85328935D01*
X121150582Y-85772535D01*
X121489680Y-86112225D01*
X121932956Y-86296289D01*
X121909914Y-86296269D01*
X121419620Y-86498854D01*
X121044173Y-86873647D01*
X120840732Y-87363587D01*
X120840269Y-87894086D01*
X121042854Y-88384380D01*
X121417647Y-88759827D01*
X121907587Y-88963268D01*
X122338645Y-88963644D01*
X121907145Y-89395145D01*
X121747470Y-89634115D01*
X121691400Y-89916000D01*
X121691400Y-104648000D01*
X121747470Y-104929885D01*
X121907145Y-105168855D01*
X122636883Y-105898593D01*
X121767081Y-105537420D01*
X120807130Y-105536583D01*
X119919931Y-105903166D01*
X119240551Y-106581361D01*
X118872420Y-107467919D01*
X118871583Y-108427870D01*
X119238166Y-109315069D01*
X119916361Y-109994449D01*
X120802919Y-110362580D01*
X121762870Y-110363417D01*
X122650069Y-109996834D01*
X123329449Y-109318639D01*
X123697580Y-108432081D01*
X123698417Y-107472130D01*
X123331834Y-106584931D01*
X122698437Y-105950427D01*
X122908115Y-106090530D01*
X122908116Y-106090530D01*
X123190000Y-106146600D01*
X124089664Y-106146600D01*
X124396274Y-106453745D01*
X124848885Y-106641685D01*
X125338965Y-106642113D01*
X125791903Y-106454963D01*
X126111252Y-106136170D01*
X126428274Y-106453745D01*
X126880885Y-106641685D01*
X127370965Y-106642113D01*
X127823903Y-106454963D01*
X128143252Y-106136170D01*
X128460274Y-106453745D01*
X128912885Y-106641685D01*
X129402965Y-106642113D01*
X129855903Y-106454963D01*
X130020792Y-106290361D01*
X130133427Y-106461827D01*
X130344460Y-106604277D01*
X130594100Y-106654340D01*
X131787900Y-106654340D01*
X131920968Y-106628521D01*
X131572420Y-107467919D01*
X131571583Y-108427870D01*
X131938166Y-109315069D01*
X132616361Y-109994449D01*
X133502919Y-110362580D01*
X134462870Y-110363417D01*
X135350069Y-109996834D01*
X136029449Y-109318639D01*
X136397580Y-108432081D01*
X136398417Y-107472130D01*
X136398417Y-111173260D01*
X118826280Y-111173260D01*
X118826280Y-64883788D01*
X118856939Y-64957806D01*
X119114916Y-65045978D01*
X120025895Y-64135000D01*
X119114916Y-63224022D01*
X118856939Y-63312194D01*
X118826280Y-63395797D01*
X118826280Y-62824360D01*
X119369733Y-62824360D01*
X119294522Y-63044416D01*
X120205500Y-63955395D01*
X121116478Y-63044416D01*
X121041266Y-62824360D01*
X135498733Y-62824360D01*
X135423522Y-63044416D01*
X136334500Y-63955395D01*
X137245478Y-63044416D01*
X137170266Y-62824360D01*
X167175180Y-62824360D01*
X167175180Y-111173260D01*
M02*
