G04 #@! TF.FileFunction,Copper,L1,Top,Signal*
%FSLAX46Y46*%
G04 Gerber Fmt 4.6, Leading zero omitted, Abs format (unit mm)*
G04 Created by KiCad (PCBNEW (2015-03-16 BZR 5519)-product) date Wed 18 Mar 2015 02:08:14 PM CET*
%MOMM*%
G01*
G04 APERTURE LIST*
%ADD10C,0.150000*%
%ADD11C,0.655320*%
%ADD12C,3.556000*%
%ADD13C,1.193800*%
%ADD14R,1.193800X1.193800*%
%ADD15C,1.143000*%
%ADD16C,3.505200*%
%ADD17C,1.828800*%
%ADD18C,1.397000*%
%ADD19R,1.501140X1.300480*%
%ADD20R,5.000000X1.000000*%
%ADD21R,2.500000X1.000000*%
%ADD22R,1.250000X1.000000*%
%ADD23R,3.299460X2.499360*%
%ADD24R,1.800860X2.499360*%
%ADD25R,2.032000X1.727200*%
%ADD26O,2.032000X1.727200*%
%ADD27R,2.032000X2.032000*%
%ADD28O,2.032000X2.032000*%
%ADD29R,1.300000X0.700000*%
%ADD30R,0.700000X1.300000*%
%ADD31R,1.143000X0.508000*%
%ADD32C,0.609600*%
%ADD33C,0.203200*%
%ADD34C,1.625600*%
%ADD35C,0.812800*%
%ADD36C,0.406400*%
%ADD37C,0.254000*%
G04 APERTURE END LIST*
D10*
D11*
X149225000Y-105410000D03*
X147955000Y-105410000D03*
X146685000Y-105410000D03*
X145415000Y-105410000D03*
X144145000Y-105410000D03*
X142875000Y-105410000D03*
X141605000Y-105410000D03*
X149225000Y-104140000D03*
X147955000Y-104140000D03*
X146685000Y-104140000D03*
X145415000Y-104140000D03*
X144145000Y-104140000D03*
X142875000Y-104140000D03*
X141605000Y-104140000D03*
X149225000Y-102870000D03*
X147955000Y-102870000D03*
X146685000Y-102870000D03*
X145415000Y-102870000D03*
X144145000Y-102870000D03*
X142875000Y-102870000D03*
X141605000Y-102870000D03*
X149225000Y-101600000D03*
X147955000Y-101600000D03*
X146685000Y-101600000D03*
X145415000Y-101600000D03*
X144145000Y-101600000D03*
X142875000Y-101600000D03*
X141605000Y-101600000D03*
X149225000Y-100330000D03*
X147955000Y-100330000D03*
X146685000Y-100330000D03*
X145415000Y-100330000D03*
X144145000Y-100330000D03*
X142875000Y-100330000D03*
X141605000Y-100330000D03*
X149225000Y-99060000D03*
X147955000Y-99060000D03*
X146685000Y-99060000D03*
X145415000Y-99060000D03*
X144145000Y-99060000D03*
X142875000Y-99060000D03*
X141605000Y-99060000D03*
X149225000Y-97790000D03*
X147955000Y-97790000D03*
X146685000Y-97790000D03*
X145415000Y-97790000D03*
X144145000Y-97790000D03*
X142875000Y-97790000D03*
X141605000Y-97790000D03*
X144145000Y-96520000D03*
X142875000Y-96520000D03*
X141605000Y-96520000D03*
X149225000Y-95250000D03*
X147955000Y-95250000D03*
X146685000Y-95250000D03*
X144145000Y-95250000D03*
X142875000Y-95250000D03*
X141605000Y-95250000D03*
X149225000Y-93980000D03*
X147955000Y-93980000D03*
X146685000Y-93980000D03*
X144145000Y-93980000D03*
X142875000Y-93980000D03*
X141605000Y-93980000D03*
X149225000Y-92710000D03*
X147955000Y-92710000D03*
X146685000Y-92710000D03*
X144145000Y-92710000D03*
X142875000Y-92710000D03*
X141605000Y-92710000D03*
D12*
X121285000Y-107950000D03*
X133985000Y-107950000D03*
D13*
X124079000Y-103632000D03*
X126111000Y-103632000D03*
X128143000Y-103632000D03*
X130175000Y-103632000D03*
X125095000Y-105410000D03*
X127127000Y-105410000D03*
X129159000Y-105410000D03*
D14*
X131191000Y-105410000D03*
D15*
X123190000Y-82550000D03*
X125222000Y-82550000D03*
X127254000Y-82550000D03*
X129286000Y-82550000D03*
X131318000Y-82550000D03*
X133350000Y-82550000D03*
X122174000Y-85090000D03*
X124206000Y-85090000D03*
X126238000Y-85090000D03*
X130302000Y-85090000D03*
X132334000Y-85090000D03*
X134366000Y-85090000D03*
D16*
X121920000Y-67310000D03*
X134620000Y-67310000D03*
D17*
X120205500Y-64135000D03*
X136334500Y-64135000D03*
D15*
X122682000Y-75438000D03*
X133858000Y-75438000D03*
X122682000Y-73964800D03*
X133858000Y-73964800D03*
D18*
X134366000Y-87630000D03*
X131826000Y-87630000D03*
X122174000Y-87630000D03*
X124714000Y-87630000D03*
D19*
X149860000Y-87630000D03*
X149860000Y-82529680D03*
X140959840Y-82529680D03*
X140959840Y-87630000D03*
X149860000Y-80010000D03*
X149860000Y-74909680D03*
X140959840Y-74909680D03*
X140959840Y-80010000D03*
D20*
X153670000Y-93720000D03*
X153670000Y-99320000D03*
D21*
X152400000Y-105005000D03*
X152400000Y-102005000D03*
D22*
X128778000Y-92980000D03*
X128778000Y-94980000D03*
D23*
X149860000Y-65178940D03*
X149860000Y-71981060D03*
D24*
X154305000Y-79468980D03*
X154305000Y-75471020D03*
D25*
X162623500Y-94234000D03*
D26*
X162623500Y-96774000D03*
X162623500Y-99314000D03*
D27*
X140589000Y-65214500D03*
D28*
X143129000Y-65214500D03*
D27*
X158369000Y-108966000D03*
D28*
X160909000Y-108966000D03*
D27*
X161099500Y-65151000D03*
D28*
X163639500Y-65151000D03*
D29*
X139446000Y-97724000D03*
X139446000Y-95824000D03*
X139446000Y-94168000D03*
X139446000Y-92268000D03*
X154178000Y-88585000D03*
X154178000Y-90485000D03*
X161925000Y-86040000D03*
X161925000Y-84140000D03*
X164147500Y-86040000D03*
X164147500Y-84140000D03*
D30*
X142555000Y-68262500D03*
X140655000Y-68262500D03*
X142555000Y-70294500D03*
X140655000Y-70294500D03*
D29*
X122174000Y-94930000D03*
X122174000Y-93030000D03*
X124460000Y-94930000D03*
X124460000Y-93030000D03*
X133350000Y-94930000D03*
X133350000Y-93030000D03*
X135636000Y-94930000D03*
X135636000Y-93030000D03*
D31*
X153670000Y-86995000D03*
X153670000Y-85725000D03*
X153670000Y-84455000D03*
X153670000Y-83185000D03*
X160020000Y-83185000D03*
X160020000Y-84455000D03*
X160020000Y-85725000D03*
X160020000Y-86995000D03*
D32*
X143446500Y-72390000D03*
X151765000Y-85534500D03*
X140335000Y-99060000D03*
X140335000Y-100330000D03*
X140335000Y-101600000D03*
X140335000Y-102870000D03*
X140335000Y-104140000D03*
X140335000Y-105410000D03*
X141605000Y-90995500D03*
X142875000Y-90995500D03*
X151574500Y-97790000D03*
X151193500Y-100647500D03*
X145224500Y-95250000D03*
X145224500Y-92710000D03*
X145224500Y-93980000D03*
X145224500Y-96774000D03*
X151765000Y-84455000D03*
X142303500Y-89598500D03*
X156019500Y-90487500D03*
X158178500Y-84963000D03*
D33*
X154051000Y-85598000D02*
X154178000Y-85725000D01*
X141224000Y-68262500D02*
X141605000Y-68643500D01*
X141605000Y-68643500D02*
X141605000Y-70104000D01*
X141605000Y-70104000D02*
X141795500Y-70294500D01*
X141795500Y-70294500D02*
X142555000Y-70294500D01*
X140655000Y-68262500D02*
X141224000Y-68262500D01*
X142555000Y-71498500D02*
X143446500Y-72390000D01*
X151765000Y-85534500D02*
X151955500Y-85725000D01*
X151955500Y-85725000D02*
X153670000Y-85725000D01*
X142555000Y-70294500D02*
X142555000Y-71498500D01*
D34*
X149760940Y-65278000D02*
X149860000Y-65178940D01*
D33*
X143002000Y-64516000D02*
X143002000Y-65532000D01*
D34*
X149824440Y-65214500D02*
X149860000Y-65178940D01*
X143129000Y-65214500D02*
X149824440Y-65214500D01*
D33*
X143129000Y-66484500D02*
X142555000Y-67058500D01*
X142555000Y-67058500D02*
X142555000Y-68262500D01*
X143129000Y-65214500D02*
X143129000Y-66484500D01*
D34*
X161071560Y-65178940D02*
X161099500Y-65151000D01*
X149860000Y-65178940D02*
X161071560Y-65178940D01*
D35*
X154305000Y-75471020D02*
X157767020Y-75471020D01*
X159512000Y-77216000D02*
X159512000Y-83185000D01*
X151912320Y-82529680D02*
X152400000Y-82042000D01*
X152400000Y-82042000D02*
X156464000Y-82042000D01*
X156464000Y-82042000D02*
X157607000Y-83185000D01*
X157607000Y-83185000D02*
X159512000Y-83185000D01*
X149860000Y-82529680D02*
X151912320Y-82529680D01*
X149860000Y-74909680D02*
X153743660Y-74909680D01*
X157767020Y-75471020D02*
X159512000Y-77216000D01*
X153743660Y-74909680D02*
X154305000Y-75471020D01*
D33*
X159512000Y-83185000D02*
X161417000Y-83185000D01*
X161925000Y-83693000D02*
X161925000Y-84137500D01*
X161417000Y-83185000D02*
X161925000Y-83693000D01*
X161925000Y-84140000D02*
X164147500Y-84140000D01*
X154178000Y-88582500D02*
X154178000Y-86995000D01*
D35*
X151384000Y-87630000D02*
X152019000Y-86995000D01*
X152019000Y-86995000D02*
X154178000Y-86995000D01*
X149860000Y-87630000D02*
X151384000Y-87630000D01*
D33*
X160972500Y-99314000D02*
X160591500Y-98933000D01*
X160591500Y-98933000D02*
X160591500Y-94361000D01*
X160591500Y-94361000D02*
X159950500Y-93720000D01*
X159950500Y-93720000D02*
X153670000Y-93720000D01*
X162623500Y-99314000D02*
X160972500Y-99314000D01*
D35*
X123190000Y-77160120D02*
X132786120Y-77160120D01*
X135636000Y-80010000D02*
X140959840Y-80010000D01*
X122682000Y-76652120D02*
X123190000Y-77160120D01*
X132786120Y-77160120D02*
X135636000Y-80010000D01*
X122682000Y-75438000D02*
X122682000Y-76652120D01*
X135890000Y-75438000D02*
X136418320Y-74909680D01*
X136418320Y-74909680D02*
X140959840Y-74909680D01*
X133858000Y-75438000D02*
X135890000Y-75438000D01*
X122682000Y-73964800D02*
X121361200Y-73964800D01*
X136398000Y-82804000D02*
X138430000Y-84836000D01*
X138430000Y-84836000D02*
X139700000Y-84836000D01*
X120650000Y-76962000D02*
X121920000Y-78232000D01*
X120650000Y-74676000D02*
X120650000Y-76962000D01*
X131826000Y-78232000D02*
X136398000Y-82804000D01*
X140959840Y-86095840D02*
X140959840Y-87630000D01*
X139700000Y-84836000D02*
X140959840Y-86095840D01*
X121361200Y-73964800D02*
X120650000Y-74676000D01*
X121920000Y-78232000D02*
X131826000Y-78232000D01*
X143510000Y-81788000D02*
X142768320Y-82529680D01*
X133858000Y-73964800D02*
X135331200Y-73964800D01*
X142240000Y-72898000D02*
X143510000Y-74168000D01*
X135331200Y-73964800D02*
X136398000Y-72898000D01*
X143510000Y-74168000D02*
X143510000Y-81788000D01*
X136398000Y-72898000D02*
X142240000Y-72898000D01*
X142768320Y-82529680D02*
X140959840Y-82529680D01*
D33*
X141605000Y-99060000D02*
X140335000Y-99060000D01*
X141605000Y-100330000D02*
X140335000Y-100330000D01*
X141605000Y-101600000D02*
X140335000Y-101600000D01*
X141605000Y-102870000D02*
X140335000Y-102870000D01*
X141605000Y-104140000D02*
X140335000Y-104140000D01*
X141605000Y-105410000D02*
X140335000Y-105410000D01*
X141605000Y-92710000D02*
X141605000Y-90995500D01*
X142875000Y-92710000D02*
X142875000Y-90995500D01*
X149225000Y-97790000D02*
X151574500Y-97790000D01*
X150876000Y-100330000D02*
X151193500Y-100647500D01*
X149225000Y-100330000D02*
X150876000Y-100330000D01*
X144145000Y-95250000D02*
X145224500Y-95250000D01*
X145224500Y-93980000D02*
X144145000Y-93980000D01*
X145224500Y-92710000D02*
X145224500Y-93980000D01*
X145415000Y-96964500D02*
X145224500Y-96774000D01*
X145415000Y-97790000D02*
X145415000Y-96964500D01*
D36*
X144145000Y-101600000D02*
X142875000Y-101600000D01*
X144145000Y-102870000D02*
X142875000Y-102870000D01*
X144145000Y-104140000D02*
X142875000Y-104140000D01*
X144145000Y-105410000D02*
X142875000Y-105410000D01*
X133350000Y-94932500D02*
X135636000Y-94932500D01*
X131762500Y-94932500D02*
X133350000Y-94932500D01*
X122174000Y-94932500D02*
X124460000Y-94932500D01*
X124460000Y-94932500D02*
X126174500Y-94932500D01*
X126174500Y-94932500D02*
X128079500Y-93027500D01*
X129857500Y-93027500D02*
X131762500Y-94932500D01*
X128778000Y-93027500D02*
X129857500Y-93027500D01*
X128079500Y-93027500D02*
X128778000Y-93027500D01*
X124460000Y-90932000D02*
X124460000Y-93027500D01*
X127762000Y-87630000D02*
X124460000Y-90932000D01*
X127762000Y-84582000D02*
X127762000Y-87630000D01*
X127000000Y-83820000D02*
X127762000Y-84582000D01*
X124206000Y-83820000D02*
X127000000Y-83820000D01*
X123190000Y-82804000D02*
X124206000Y-83820000D01*
X123190000Y-82550000D02*
X123190000Y-82804000D01*
X129540000Y-83820000D02*
X129032000Y-84328000D01*
X133350000Y-83312000D02*
X132842000Y-83820000D01*
X132842000Y-83820000D02*
X129540000Y-83820000D01*
X129032000Y-84328000D02*
X129032000Y-87630000D01*
X133350000Y-91948000D02*
X133350000Y-93027500D01*
X133350000Y-82550000D02*
X133350000Y-83312000D01*
X129032000Y-87630000D02*
X133350000Y-91948000D01*
X120904000Y-86360000D02*
X120904000Y-89916000D01*
X120904000Y-89916000D02*
X122174000Y-91186000D01*
X122174000Y-91186000D02*
X122174000Y-93027500D01*
X122174000Y-85090000D02*
X120904000Y-86360000D01*
X134366000Y-85090000D02*
X133096000Y-86360000D01*
X133096000Y-86360000D02*
X133096000Y-88900000D01*
X135636000Y-91440000D02*
X135636000Y-93027500D01*
X133096000Y-88900000D02*
X135128000Y-90932000D01*
X135128000Y-90932000D02*
X135636000Y-91440000D01*
D33*
X153670000Y-84455000D02*
X151765000Y-84455000D01*
X144272000Y-92583000D02*
X144145000Y-92710000D01*
X142303500Y-89598500D02*
X142621000Y-89598500D01*
X144145000Y-91884500D02*
X144145000Y-92710000D01*
X144145000Y-91122500D02*
X144145000Y-91884500D01*
X142621000Y-89598500D02*
X144145000Y-91122500D01*
X141541500Y-97726500D02*
X141605000Y-97790000D01*
X139446000Y-97726500D02*
X141541500Y-97726500D01*
X141414500Y-94170500D02*
X141605000Y-93980000D01*
X139446000Y-94170500D02*
X141414500Y-94170500D01*
X156017000Y-90485000D02*
X156019500Y-90487500D01*
X158178500Y-84963000D02*
X158686500Y-84455000D01*
X158686500Y-84455000D02*
X160020000Y-84455000D01*
X154178000Y-90485000D02*
X156017000Y-90485000D01*
X160401000Y-85725000D02*
X160718500Y-86042500D01*
X160718500Y-86042500D02*
X161925000Y-86042500D01*
X159512000Y-85725000D02*
X160401000Y-85725000D01*
X163830000Y-86995000D02*
X164147500Y-86677500D01*
X164147500Y-86677500D02*
X164147500Y-86040000D01*
X160020000Y-86995000D02*
X163830000Y-86995000D01*
X144145000Y-96520000D02*
X144145000Y-97790000D01*
D37*
G36*
X166243000Y-107569000D02*
X161781269Y-107569000D01*
X161540810Y-107408330D01*
X160909000Y-107282655D01*
X160277190Y-107408330D01*
X160036730Y-107569000D01*
X159385000Y-107569000D01*
X159385000Y-108299861D01*
X159383675Y-108301845D01*
X159258000Y-108933655D01*
X159258000Y-108998345D01*
X159383675Y-109630155D01*
X159385000Y-109632138D01*
X159385000Y-110363000D01*
X138049000Y-110363000D01*
X138049000Y-107061000D01*
X144056453Y-107061000D01*
X144907000Y-106493968D01*
X144907000Y-106009549D01*
X144960628Y-105956015D01*
X145107493Y-105602325D01*
X145107827Y-105219355D01*
X144961580Y-104865409D01*
X144907000Y-104810733D01*
X144907000Y-104739549D01*
X144960628Y-104686015D01*
X145107493Y-104332325D01*
X145107827Y-103949355D01*
X144961580Y-103595409D01*
X144907000Y-103540733D01*
X144907000Y-103469549D01*
X144960628Y-103416015D01*
X145107493Y-103062325D01*
X145107827Y-102679355D01*
X144961580Y-102325409D01*
X144907000Y-102270733D01*
X144907000Y-102199549D01*
X144960628Y-102146015D01*
X145107493Y-101792325D01*
X145107827Y-101409355D01*
X145029174Y-101219000D01*
X145045684Y-101219000D01*
X145222675Y-101292493D01*
X145605645Y-101292827D01*
X145784320Y-101219000D01*
X146315684Y-101219000D01*
X146492675Y-101292493D01*
X146875645Y-101292827D01*
X147054320Y-101219000D01*
X147585684Y-101219000D01*
X147762675Y-101292493D01*
X148145645Y-101292827D01*
X148324320Y-101219000D01*
X148855684Y-101219000D01*
X149032675Y-101292493D01*
X149415645Y-101292827D01*
X149594320Y-101219000D01*
X150436083Y-101219000D01*
X150495000Y-101278019D01*
X150495000Y-103759000D01*
X166243000Y-103759000D01*
X166243000Y-107569000D01*
X166243000Y-107569000D01*
G37*
X166243000Y-107569000D02*
X161781269Y-107569000D01*
X161540810Y-107408330D01*
X160909000Y-107282655D01*
X160277190Y-107408330D01*
X160036730Y-107569000D01*
X159385000Y-107569000D01*
X159385000Y-108299861D01*
X159383675Y-108301845D01*
X159258000Y-108933655D01*
X159258000Y-108998345D01*
X159383675Y-109630155D01*
X159385000Y-109632138D01*
X159385000Y-110363000D01*
X138049000Y-110363000D01*
X138049000Y-107061000D01*
X144056453Y-107061000D01*
X144907000Y-106493968D01*
X144907000Y-106009549D01*
X144960628Y-105956015D01*
X145107493Y-105602325D01*
X145107827Y-105219355D01*
X144961580Y-104865409D01*
X144907000Y-104810733D01*
X144907000Y-104739549D01*
X144960628Y-104686015D01*
X145107493Y-104332325D01*
X145107827Y-103949355D01*
X144961580Y-103595409D01*
X144907000Y-103540733D01*
X144907000Y-103469549D01*
X144960628Y-103416015D01*
X145107493Y-103062325D01*
X145107827Y-102679355D01*
X144961580Y-102325409D01*
X144907000Y-102270733D01*
X144907000Y-102199549D01*
X144960628Y-102146015D01*
X145107493Y-101792325D01*
X145107827Y-101409355D01*
X145029174Y-101219000D01*
X145045684Y-101219000D01*
X145222675Y-101292493D01*
X145605645Y-101292827D01*
X145784320Y-101219000D01*
X146315684Y-101219000D01*
X146492675Y-101292493D01*
X146875645Y-101292827D01*
X147054320Y-101219000D01*
X147585684Y-101219000D01*
X147762675Y-101292493D01*
X148145645Y-101292827D01*
X148324320Y-101219000D01*
X148855684Y-101219000D01*
X149032675Y-101292493D01*
X149415645Y-101292827D01*
X149594320Y-101219000D01*
X150436083Y-101219000D01*
X150495000Y-101278019D01*
X150495000Y-103759000D01*
X166243000Y-103759000D01*
X166243000Y-107569000D01*
G36*
X161925000Y-73533000D02*
X148209000Y-73533000D01*
X148209000Y-77343000D01*
X153279208Y-77343000D01*
X153404570Y-77368140D01*
X155205430Y-77368140D01*
X155335003Y-77343000D01*
X158115000Y-77343000D01*
X158115000Y-81000600D01*
X156464000Y-81000600D01*
X152400000Y-81000600D01*
X148463000Y-81000600D01*
X148463000Y-81874403D01*
X148461990Y-81879440D01*
X148461990Y-83179920D01*
X148463000Y-83185125D01*
X148463000Y-84582000D01*
X148463000Y-86715600D01*
X152781000Y-86715600D01*
X152781000Y-87884000D01*
X152781000Y-91567000D01*
X156464000Y-91567000D01*
X159385000Y-91567000D01*
X159385000Y-96393000D01*
X146083939Y-96393000D01*
X146021688Y-96242341D01*
X145923000Y-96143480D01*
X145923000Y-95880637D01*
X146020759Y-95783049D01*
X146164137Y-95437758D01*
X146164463Y-95063882D01*
X146021688Y-94718341D01*
X145923000Y-94619480D01*
X145923000Y-94610637D01*
X146020759Y-94513049D01*
X146164137Y-94167758D01*
X146164463Y-93793882D01*
X146021688Y-93448341D01*
X145961100Y-93387647D01*
X145961100Y-93302604D01*
X146020759Y-93243049D01*
X146164137Y-92897758D01*
X146164463Y-92523882D01*
X146021688Y-92178341D01*
X145923000Y-92079480D01*
X145923000Y-91892132D01*
X144836599Y-90896264D01*
X144825530Y-90840615D01*
X144665855Y-90601645D01*
X143141855Y-89077645D01*
X143050613Y-89016679D01*
X142875000Y-88840759D01*
X142875000Y-83872605D01*
X143434913Y-83312691D01*
X143504701Y-83266061D01*
X144246381Y-82524381D01*
X144293011Y-82454593D01*
X144907000Y-81840605D01*
X144907000Y-67437000D01*
X161925000Y-67437000D01*
X161925000Y-73533000D01*
X161925000Y-73533000D01*
G37*
X161925000Y-73533000D02*
X148209000Y-73533000D01*
X148209000Y-77343000D01*
X153279208Y-77343000D01*
X153404570Y-77368140D01*
X155205430Y-77368140D01*
X155335003Y-77343000D01*
X158115000Y-77343000D01*
X158115000Y-81000600D01*
X156464000Y-81000600D01*
X152400000Y-81000600D01*
X148463000Y-81000600D01*
X148463000Y-81874403D01*
X148461990Y-81879440D01*
X148461990Y-83179920D01*
X148463000Y-83185125D01*
X148463000Y-84582000D01*
X148463000Y-86715600D01*
X152781000Y-86715600D01*
X152781000Y-87884000D01*
X152781000Y-91567000D01*
X156464000Y-91567000D01*
X159385000Y-91567000D01*
X159385000Y-96393000D01*
X146083939Y-96393000D01*
X146021688Y-96242341D01*
X145923000Y-96143480D01*
X145923000Y-95880637D01*
X146020759Y-95783049D01*
X146164137Y-95437758D01*
X146164463Y-95063882D01*
X146021688Y-94718341D01*
X145923000Y-94619480D01*
X145923000Y-94610637D01*
X146020759Y-94513049D01*
X146164137Y-94167758D01*
X146164463Y-93793882D01*
X146021688Y-93448341D01*
X145961100Y-93387647D01*
X145961100Y-93302604D01*
X146020759Y-93243049D01*
X146164137Y-92897758D01*
X146164463Y-92523882D01*
X146021688Y-92178341D01*
X145923000Y-92079480D01*
X145923000Y-91892132D01*
X144836599Y-90896264D01*
X144825530Y-90840615D01*
X144665855Y-90601645D01*
X143141855Y-89077645D01*
X143050613Y-89016679D01*
X142875000Y-88840759D01*
X142875000Y-83872605D01*
X143434913Y-83312691D01*
X143504701Y-83266061D01*
X144246381Y-82524381D01*
X144293011Y-82454593D01*
X144907000Y-81840605D01*
X144907000Y-67437000D01*
X161925000Y-67437000D01*
X161925000Y-73533000D01*
G36*
X167175180Y-111173260D02*
X167005000Y-111173260D01*
X167005000Y-108331000D01*
X167005000Y-102997000D01*
X165444940Y-102997000D01*
X165444940Y-86390000D01*
X165444940Y-85690000D01*
X165397963Y-85447877D01*
X165258173Y-85235073D01*
X165047140Y-85092623D01*
X165037969Y-85090783D01*
X165039623Y-85090463D01*
X165252427Y-84950673D01*
X165394877Y-84739640D01*
X165444940Y-84490000D01*
X165444940Y-83790000D01*
X165397963Y-83547877D01*
X165258173Y-83335073D01*
X165047140Y-83192623D01*
X164797500Y-83142560D01*
X163497500Y-83142560D01*
X163255377Y-83189537D01*
X163042573Y-83329327D01*
X163037163Y-83337341D01*
X163035673Y-83335073D01*
X162824640Y-83192623D01*
X162575000Y-83142560D01*
X162416270Y-83142560D01*
X161937855Y-82664145D01*
X161698885Y-82504470D01*
X161417000Y-82448400D01*
X161011176Y-82448400D01*
X160841140Y-82333623D01*
X160591500Y-82283560D01*
X160553400Y-82283560D01*
X160553400Y-77216000D01*
X160474128Y-76817474D01*
X160474128Y-76817473D01*
X160248381Y-76479619D01*
X158503401Y-74734639D01*
X158165547Y-74508892D01*
X157767020Y-74429620D01*
X155852870Y-74429620D01*
X155852870Y-74295000D01*
X162687000Y-74295000D01*
X162687000Y-66675000D01*
X162498380Y-66675000D01*
X162570427Y-66627673D01*
X162712877Y-66416640D01*
X162762940Y-66167000D01*
X162762940Y-64135000D01*
X162715963Y-63892877D01*
X162576173Y-63680073D01*
X162365140Y-63537623D01*
X162115500Y-63487560D01*
X160083500Y-63487560D01*
X159841377Y-63534537D01*
X159628573Y-63674327D01*
X159590223Y-63731140D01*
X152118730Y-63731140D01*
X152110193Y-63687137D01*
X151970403Y-63474333D01*
X151759370Y-63331883D01*
X151509730Y-63281820D01*
X148210270Y-63281820D01*
X147968147Y-63328797D01*
X147755343Y-63468587D01*
X147612893Y-63679620D01*
X147595429Y-63766700D01*
X143925242Y-63766700D01*
X143760810Y-63656830D01*
X143129000Y-63531155D01*
X142497190Y-63656830D01*
X141961567Y-64014722D01*
X141603675Y-64550345D01*
X141478000Y-65182155D01*
X141478000Y-65246845D01*
X141603675Y-65878655D01*
X141961567Y-66414278D01*
X142079027Y-66492762D01*
X142034145Y-66537645D01*
X141874470Y-66776615D01*
X141818400Y-67058500D01*
X141818400Y-67106943D01*
X141750073Y-67151827D01*
X141607623Y-67362860D01*
X141605783Y-67372030D01*
X141605463Y-67370377D01*
X141465673Y-67157573D01*
X141254640Y-67015123D01*
X141005000Y-66965060D01*
X140305000Y-66965060D01*
X140062877Y-67012037D01*
X139850073Y-67151827D01*
X139707623Y-67362860D01*
X139657560Y-67612500D01*
X139657560Y-68912500D01*
X139704537Y-69154623D01*
X139844327Y-69367427D01*
X140055360Y-69509877D01*
X140305000Y-69559940D01*
X140868400Y-69559940D01*
X140868400Y-70104000D01*
X140924470Y-70385885D01*
X141084145Y-70624855D01*
X141274645Y-70815355D01*
X141513615Y-70975030D01*
X141513616Y-70975030D01*
X141565485Y-70985347D01*
X141604537Y-71186623D01*
X141744327Y-71399427D01*
X141818400Y-71449427D01*
X141818400Y-71498500D01*
X141874470Y-71780385D01*
X141925395Y-71856600D01*
X136398000Y-71856600D01*
X135999473Y-71935872D01*
X135661619Y-72161619D01*
X134899838Y-72923400D01*
X134496141Y-72923400D01*
X134099041Y-72758510D01*
X133619065Y-72758091D01*
X133175465Y-72941382D01*
X132835775Y-73280480D01*
X132651710Y-73723759D01*
X132651291Y-74203735D01*
X132834582Y-74647335D01*
X132888349Y-74701196D01*
X132835775Y-74753680D01*
X132651710Y-75196959D01*
X132651291Y-75676935D01*
X132834582Y-76120535D01*
X132844328Y-76130298D01*
X132786120Y-76118720D01*
X123723400Y-76118720D01*
X123723400Y-76076141D01*
X123888290Y-75679041D01*
X123888709Y-75199065D01*
X123705418Y-74755465D01*
X123651650Y-74701603D01*
X123704225Y-74649120D01*
X123888290Y-74205841D01*
X123888709Y-73725865D01*
X123705418Y-73282265D01*
X123366320Y-72942575D01*
X122923041Y-72758510D01*
X122443065Y-72758091D01*
X122042984Y-72923400D01*
X121361200Y-72923400D01*
X120962674Y-73002671D01*
X120624819Y-73228419D01*
X119913619Y-73939619D01*
X119687872Y-74277473D01*
X119608600Y-74676000D01*
X119608600Y-76962000D01*
X119687872Y-77360527D01*
X119913619Y-77698381D01*
X121183619Y-78968381D01*
X121521473Y-79194128D01*
X121521474Y-79194128D01*
X121920000Y-79273400D01*
X131394638Y-79273400D01*
X133464837Y-81343599D01*
X133111065Y-81343291D01*
X132667465Y-81526582D01*
X132333715Y-81859749D01*
X132002320Y-81527775D01*
X131559041Y-81343710D01*
X131079065Y-81343291D01*
X130635465Y-81526582D01*
X130301715Y-81859749D01*
X129970320Y-81527775D01*
X129527041Y-81343710D01*
X129047065Y-81343291D01*
X128603465Y-81526582D01*
X128269715Y-81859749D01*
X127938320Y-81527775D01*
X127495041Y-81343710D01*
X127015065Y-81343291D01*
X126571465Y-81526582D01*
X126237715Y-81859749D01*
X125906320Y-81527775D01*
X125463041Y-81343710D01*
X124983065Y-81343291D01*
X124539465Y-81526582D01*
X124205715Y-81859749D01*
X123874320Y-81527775D01*
X123431041Y-81343710D01*
X122951065Y-81343291D01*
X122507465Y-81526582D01*
X122167775Y-81865680D01*
X121983710Y-82308959D01*
X121983291Y-82788935D01*
X122166582Y-83232535D01*
X122505680Y-83572225D01*
X122948959Y-83756290D01*
X122956902Y-83756296D01*
X123395214Y-84194608D01*
X123189715Y-84399749D01*
X122858320Y-84067775D01*
X122415041Y-83883710D01*
X121935065Y-83883291D01*
X121491465Y-84066582D01*
X121151775Y-84405680D01*
X120967710Y-84848959D01*
X120967481Y-85111124D01*
X120311303Y-85767303D01*
X120129604Y-86039234D01*
X120065800Y-86360000D01*
X120065800Y-89916000D01*
X120129604Y-90236766D01*
X120311303Y-90508697D01*
X121335800Y-91533194D01*
X121335800Y-92069074D01*
X121281877Y-92079537D01*
X121069073Y-92219327D01*
X120926623Y-92430360D01*
X120876560Y-92680000D01*
X120876560Y-93380000D01*
X120923537Y-93622123D01*
X121063327Y-93834927D01*
X121274360Y-93977377D01*
X121283530Y-93979216D01*
X121281877Y-93979537D01*
X121069073Y-94119327D01*
X120926623Y-94330360D01*
X120876560Y-94580000D01*
X120876560Y-95280000D01*
X120923537Y-95522123D01*
X121063327Y-95734927D01*
X121274360Y-95877377D01*
X121524000Y-95927440D01*
X122824000Y-95927440D01*
X123066123Y-95880463D01*
X123233216Y-95770700D01*
X123402323Y-95770700D01*
X123560360Y-95877377D01*
X123810000Y-95927440D01*
X125110000Y-95927440D01*
X125352123Y-95880463D01*
X125519216Y-95770700D01*
X126174500Y-95770700D01*
X126495265Y-95706896D01*
X126495266Y-95706896D01*
X126767197Y-95525197D01*
X128164954Y-94127440D01*
X129403000Y-94127440D01*
X129645123Y-94080463D01*
X129693373Y-94048767D01*
X131169803Y-95525197D01*
X131441735Y-95706896D01*
X131762500Y-95770700D01*
X132292323Y-95770700D01*
X132450360Y-95877377D01*
X132700000Y-95927440D01*
X134000000Y-95927440D01*
X134242123Y-95880463D01*
X134409216Y-95770700D01*
X134578323Y-95770700D01*
X134736360Y-95877377D01*
X134986000Y-95927440D01*
X136286000Y-95927440D01*
X136528123Y-95880463D01*
X136740927Y-95740673D01*
X136883377Y-95529640D01*
X136933440Y-95280000D01*
X136933440Y-94580000D01*
X136886463Y-94337877D01*
X136746673Y-94125073D01*
X136535640Y-93982623D01*
X136526469Y-93980783D01*
X136528123Y-93980463D01*
X136740927Y-93840673D01*
X136883377Y-93629640D01*
X136933440Y-93380000D01*
X136933440Y-92680000D01*
X136886463Y-92437877D01*
X136746673Y-92225073D01*
X136535640Y-92082623D01*
X136474200Y-92070301D01*
X136474200Y-91440000D01*
X136410396Y-91119235D01*
X136410395Y-91119234D01*
X136228697Y-90847303D01*
X135720697Y-90339303D01*
X134344876Y-88963482D01*
X134630086Y-88963731D01*
X135120380Y-88761146D01*
X135495827Y-88386353D01*
X135699268Y-87896413D01*
X135699731Y-87365914D01*
X135497146Y-86875620D01*
X135122353Y-86500173D01*
X134632413Y-86296732D01*
X134604937Y-86296708D01*
X135048535Y-86113418D01*
X135388225Y-85774320D01*
X135572290Y-85331041D01*
X135572709Y-84851065D01*
X135389418Y-84407465D01*
X135050320Y-84067775D01*
X134607041Y-83883710D01*
X134127065Y-83883291D01*
X133849356Y-83998037D01*
X133942697Y-83904697D01*
X134124395Y-83632766D01*
X134124396Y-83632765D01*
X134161885Y-83444293D01*
X134372225Y-83234320D01*
X134556290Y-82791041D01*
X134556600Y-82435362D01*
X135661619Y-83540381D01*
X137693619Y-85572381D01*
X138031473Y-85798128D01*
X138031474Y-85798128D01*
X138430000Y-85877400D01*
X139268638Y-85877400D01*
X139848484Y-86457246D01*
X139754343Y-86519087D01*
X139611893Y-86730120D01*
X139561830Y-86979760D01*
X139561830Y-88280240D01*
X139608807Y-88522363D01*
X139748597Y-88735167D01*
X139959630Y-88877617D01*
X140209270Y-88927680D01*
X141645252Y-88927680D01*
X141507241Y-89065451D01*
X141363863Y-89410742D01*
X141363537Y-89784618D01*
X141506312Y-90130159D01*
X141770451Y-90394759D01*
X142115742Y-90538137D01*
X142489618Y-90538463D01*
X142510588Y-90529798D01*
X143408400Y-91427610D01*
X143408400Y-91884500D01*
X143408400Y-92085094D01*
X143329372Y-92163985D01*
X143182507Y-92517675D01*
X143182173Y-92900645D01*
X143328420Y-93254591D01*
X143598985Y-93525628D01*
X143952675Y-93672493D01*
X144335645Y-93672827D01*
X144689591Y-93526580D01*
X144960628Y-93256015D01*
X145107493Y-92902325D01*
X145107827Y-92519355D01*
X144961580Y-92165409D01*
X144881600Y-92085289D01*
X144881600Y-91971221D01*
X145161000Y-92227338D01*
X145161000Y-97155000D01*
X159854900Y-97155000D01*
X159854900Y-98933000D01*
X159910970Y-99214885D01*
X160070645Y-99453855D01*
X160451645Y-99834855D01*
X160690615Y-99994530D01*
X160972500Y-100050600D01*
X161163216Y-100050600D01*
X161379085Y-100373670D01*
X161865266Y-100698526D01*
X162438755Y-100812600D01*
X162808245Y-100812600D01*
X163381734Y-100698526D01*
X163867915Y-100373670D01*
X164192771Y-99887489D01*
X164306845Y-99314000D01*
X164192771Y-98740511D01*
X163867915Y-98254330D01*
X163553134Y-98044000D01*
X163867915Y-97833670D01*
X164192771Y-97347489D01*
X164306845Y-96774000D01*
X164192771Y-96200511D01*
X163867915Y-95714330D01*
X163852132Y-95703784D01*
X163881623Y-95698063D01*
X164094427Y-95558273D01*
X164236877Y-95347240D01*
X164286940Y-95097600D01*
X164286940Y-93370400D01*
X164239963Y-93128277D01*
X164100173Y-92915473D01*
X163889140Y-92773023D01*
X163639500Y-92722960D01*
X161607500Y-92722960D01*
X161365377Y-92769937D01*
X161152573Y-92909727D01*
X161010123Y-93120760D01*
X160960060Y-93370400D01*
X160960060Y-93687850D01*
X160471355Y-93199145D01*
X160232385Y-93039470D01*
X160147000Y-93022485D01*
X160147000Y-90805000D01*
X156905263Y-90805000D01*
X156959137Y-90675258D01*
X156959463Y-90301382D01*
X156816688Y-89955841D01*
X156552549Y-89691241D01*
X156207258Y-89547863D01*
X155833382Y-89547537D01*
X155487841Y-89690312D01*
X155429651Y-89748400D01*
X155333556Y-89748400D01*
X155288673Y-89680073D01*
X155077640Y-89537623D01*
X155068469Y-89535783D01*
X155070123Y-89535463D01*
X155282927Y-89395673D01*
X155425377Y-89184640D01*
X155475440Y-88935000D01*
X155475440Y-88235000D01*
X155428463Y-87992877D01*
X155288673Y-87780073D01*
X155077640Y-87637623D01*
X154988916Y-87619830D01*
X155140128Y-87393527D01*
X155219400Y-86995000D01*
X155140128Y-86596473D01*
X154914381Y-86258619D01*
X154842497Y-86210587D01*
X154888940Y-85979000D01*
X154888940Y-85854002D01*
X154914600Y-85725000D01*
X154888940Y-85595997D01*
X154888940Y-85471000D01*
X154841963Y-85228877D01*
X154750474Y-85089603D01*
X154838877Y-84958640D01*
X154888940Y-84709000D01*
X154888940Y-84201000D01*
X154841963Y-83958877D01*
X154702173Y-83746073D01*
X154491140Y-83603623D01*
X154241500Y-83553560D01*
X153098500Y-83553560D01*
X152856377Y-83600537D01*
X152676952Y-83718400D01*
X152357604Y-83718400D01*
X152298049Y-83658741D01*
X152030382Y-83547595D01*
X152310846Y-83491808D01*
X152310847Y-83491808D01*
X152648701Y-83266061D01*
X152831362Y-83083400D01*
X156032638Y-83083400D01*
X156870619Y-83921381D01*
X157208473Y-84147128D01*
X157208474Y-84147128D01*
X157589611Y-84222941D01*
X157382241Y-84429951D01*
X157238863Y-84775242D01*
X157238537Y-85149118D01*
X157381312Y-85494659D01*
X157645451Y-85759259D01*
X157990742Y-85902637D01*
X158364618Y-85902963D01*
X158710159Y-85760188D01*
X158782830Y-85687642D01*
X158775400Y-85725000D01*
X158801060Y-85854002D01*
X158801060Y-85979000D01*
X158848037Y-86221123D01*
X158939525Y-86360396D01*
X158851123Y-86491360D01*
X158801060Y-86741000D01*
X158801060Y-87249000D01*
X158848037Y-87491123D01*
X158987827Y-87703927D01*
X159198860Y-87846377D01*
X159448500Y-87896440D01*
X160591500Y-87896440D01*
X160833623Y-87849463D01*
X161013047Y-87731600D01*
X163830000Y-87731600D01*
X164111885Y-87675530D01*
X164350855Y-87515855D01*
X164668355Y-87198355D01*
X164775874Y-87037440D01*
X164775875Y-87037440D01*
X164797500Y-87037440D01*
X165039623Y-86990463D01*
X165252427Y-86850673D01*
X165394877Y-86639640D01*
X165444940Y-86390000D01*
X165444940Y-102997000D01*
X151257000Y-102997000D01*
X151257000Y-100457000D01*
X145107827Y-100457000D01*
X145107827Y-97599355D01*
X144961580Y-97245409D01*
X144881600Y-97165289D01*
X144881600Y-97144905D01*
X144960628Y-97066015D01*
X145107493Y-96712325D01*
X145107827Y-96329355D01*
X144961580Y-95975409D01*
X144691015Y-95704372D01*
X144337325Y-95557507D01*
X143954355Y-95557173D01*
X143600409Y-95703420D01*
X143329372Y-95973985D01*
X143182507Y-96327675D01*
X143182173Y-96710645D01*
X143328420Y-97064591D01*
X143408400Y-97144710D01*
X143408400Y-97165094D01*
X143329372Y-97243985D01*
X143182507Y-97597675D01*
X143182173Y-97980645D01*
X143328420Y-98334591D01*
X143598985Y-98605628D01*
X143952675Y-98752493D01*
X144335645Y-98752827D01*
X144689591Y-98606580D01*
X144960628Y-98336015D01*
X145107493Y-97982325D01*
X145107827Y-97599355D01*
X145107827Y-100457000D01*
X144145000Y-100457000D01*
X144145000Y-106086158D01*
X143825737Y-106299000D01*
X142567827Y-106299000D01*
X142567827Y-97599355D01*
X142421580Y-97245409D01*
X142331407Y-97155079D01*
X142420628Y-97066015D01*
X142567493Y-96712325D01*
X142567827Y-96329355D01*
X142421580Y-95975409D01*
X142331407Y-95885079D01*
X142420628Y-95796015D01*
X142567493Y-95442325D01*
X142567827Y-95059355D01*
X142421580Y-94705409D01*
X142331407Y-94615079D01*
X142420628Y-94526015D01*
X142567493Y-94172325D01*
X142567827Y-93789355D01*
X142421580Y-93435409D01*
X142151015Y-93164372D01*
X141797325Y-93017507D01*
X141414355Y-93017173D01*
X141060409Y-93163420D01*
X140789457Y-93433900D01*
X140603198Y-93433900D01*
X140556673Y-93363073D01*
X140345640Y-93220623D01*
X140096000Y-93170560D01*
X138796000Y-93170560D01*
X138553877Y-93217537D01*
X138341073Y-93357327D01*
X138198623Y-93568360D01*
X138148560Y-93818000D01*
X138148560Y-94518000D01*
X138195537Y-94760123D01*
X138335327Y-94972927D01*
X138546360Y-95115377D01*
X138796000Y-95165440D01*
X140096000Y-95165440D01*
X140338123Y-95118463D01*
X140550927Y-94978673D01*
X140599239Y-94907100D01*
X140705031Y-94907100D01*
X140642507Y-95057675D01*
X140642173Y-95440645D01*
X140788420Y-95794591D01*
X140878592Y-95884920D01*
X140789372Y-95973985D01*
X140642507Y-96327675D01*
X140642173Y-96710645D01*
X140757558Y-96989900D01*
X140603198Y-96989900D01*
X140556673Y-96919073D01*
X140345640Y-96776623D01*
X140096000Y-96726560D01*
X138796000Y-96726560D01*
X138553877Y-96773537D01*
X138341073Y-96913327D01*
X138198623Y-97124360D01*
X138148560Y-97374000D01*
X138148560Y-98074000D01*
X138195537Y-98316123D01*
X138335327Y-98528927D01*
X138546360Y-98671377D01*
X138796000Y-98721440D01*
X140096000Y-98721440D01*
X140338123Y-98674463D01*
X140550927Y-98534673D01*
X140599239Y-98463100D01*
X140916705Y-98463100D01*
X141058985Y-98605628D01*
X141412675Y-98752493D01*
X141795645Y-98752827D01*
X142149591Y-98606580D01*
X142420628Y-98336015D01*
X142567493Y-97982325D01*
X142567827Y-97599355D01*
X142567827Y-106299000D01*
X137287000Y-106299000D01*
X137287000Y-111125000D01*
X160147000Y-111125000D01*
X160147000Y-108331000D01*
X167005000Y-108331000D01*
X167005000Y-111173260D01*
X136398417Y-111173260D01*
X136398417Y-107472130D01*
X136031834Y-106584931D01*
X135353639Y-105905551D01*
X134467081Y-105537420D01*
X133507130Y-105536583D01*
X132619931Y-105903166D01*
X132415146Y-106107592D01*
X132435340Y-106006900D01*
X132435340Y-104813100D01*
X132388363Y-104570977D01*
X132248573Y-104358173D01*
X132037540Y-104215723D01*
X131787900Y-104165660D01*
X131287286Y-104165660D01*
X131406685Y-103878115D01*
X131407113Y-103388035D01*
X131219963Y-102935097D01*
X130873726Y-102588255D01*
X130421115Y-102400315D01*
X129931035Y-102399887D01*
X129478097Y-102587037D01*
X129158747Y-102905829D01*
X128841726Y-102588255D01*
X128389115Y-102400315D01*
X127899035Y-102399887D01*
X127446097Y-102587037D01*
X127126747Y-102905829D01*
X126809726Y-102588255D01*
X126357115Y-102400315D01*
X125867035Y-102399887D01*
X125414097Y-102587037D01*
X125094747Y-102905829D01*
X124777726Y-102588255D01*
X124325115Y-102400315D01*
X123835035Y-102399887D01*
X123382097Y-102587037D01*
X123035255Y-102933274D01*
X122847315Y-103385885D01*
X122846887Y-103875965D01*
X123034037Y-104328903D01*
X123380274Y-104675745D01*
X123832885Y-104863685D01*
X123987912Y-104863820D01*
X123863315Y-105163885D01*
X123862887Y-105653965D01*
X124050037Y-106106903D01*
X124396274Y-106453745D01*
X124848885Y-106641685D01*
X125338965Y-106642113D01*
X125791903Y-106454963D01*
X126111252Y-106136170D01*
X126428274Y-106453745D01*
X126880885Y-106641685D01*
X127370965Y-106642113D01*
X127823903Y-106454963D01*
X128143252Y-106136170D01*
X128460274Y-106453745D01*
X128912885Y-106641685D01*
X129402965Y-106642113D01*
X129855903Y-106454963D01*
X130020792Y-106290361D01*
X130133427Y-106461827D01*
X130344460Y-106604277D01*
X130594100Y-106654340D01*
X131787900Y-106654340D01*
X131920968Y-106628521D01*
X131572420Y-107467919D01*
X131571583Y-108427870D01*
X131938166Y-109315069D01*
X132616361Y-109994449D01*
X133502919Y-110362580D01*
X134462870Y-110363417D01*
X135350069Y-109996834D01*
X136029449Y-109318639D01*
X136397580Y-108432081D01*
X136398417Y-107472130D01*
X136398417Y-111173260D01*
X123698417Y-111173260D01*
X123698417Y-107472130D01*
X123331834Y-106584931D01*
X122653639Y-105905551D01*
X121767081Y-105537420D01*
X120807130Y-105536583D01*
X119919931Y-105903166D01*
X119240551Y-106581361D01*
X118872420Y-107467919D01*
X118871583Y-108427870D01*
X119238166Y-109315069D01*
X119916361Y-109994449D01*
X120802919Y-110362580D01*
X121762870Y-110363417D01*
X122650069Y-109996834D01*
X123329449Y-109318639D01*
X123697580Y-108432081D01*
X123698417Y-107472130D01*
X123698417Y-111173260D01*
X118826280Y-111173260D01*
X118826280Y-62824360D01*
X167175180Y-62824360D01*
X167175180Y-111173260D01*
X167175180Y-111173260D01*
G37*
X167175180Y-111173260D02*
X167005000Y-111173260D01*
X167005000Y-108331000D01*
X167005000Y-102997000D01*
X165444940Y-102997000D01*
X165444940Y-86390000D01*
X165444940Y-85690000D01*
X165397963Y-85447877D01*
X165258173Y-85235073D01*
X165047140Y-85092623D01*
X165037969Y-85090783D01*
X165039623Y-85090463D01*
X165252427Y-84950673D01*
X165394877Y-84739640D01*
X165444940Y-84490000D01*
X165444940Y-83790000D01*
X165397963Y-83547877D01*
X165258173Y-83335073D01*
X165047140Y-83192623D01*
X164797500Y-83142560D01*
X163497500Y-83142560D01*
X163255377Y-83189537D01*
X163042573Y-83329327D01*
X163037163Y-83337341D01*
X163035673Y-83335073D01*
X162824640Y-83192623D01*
X162575000Y-83142560D01*
X162416270Y-83142560D01*
X161937855Y-82664145D01*
X161698885Y-82504470D01*
X161417000Y-82448400D01*
X161011176Y-82448400D01*
X160841140Y-82333623D01*
X160591500Y-82283560D01*
X160553400Y-82283560D01*
X160553400Y-77216000D01*
X160474128Y-76817474D01*
X160474128Y-76817473D01*
X160248381Y-76479619D01*
X158503401Y-74734639D01*
X158165547Y-74508892D01*
X157767020Y-74429620D01*
X155852870Y-74429620D01*
X155852870Y-74295000D01*
X162687000Y-74295000D01*
X162687000Y-66675000D01*
X162498380Y-66675000D01*
X162570427Y-66627673D01*
X162712877Y-66416640D01*
X162762940Y-66167000D01*
X162762940Y-64135000D01*
X162715963Y-63892877D01*
X162576173Y-63680073D01*
X162365140Y-63537623D01*
X162115500Y-63487560D01*
X160083500Y-63487560D01*
X159841377Y-63534537D01*
X159628573Y-63674327D01*
X159590223Y-63731140D01*
X152118730Y-63731140D01*
X152110193Y-63687137D01*
X151970403Y-63474333D01*
X151759370Y-63331883D01*
X151509730Y-63281820D01*
X148210270Y-63281820D01*
X147968147Y-63328797D01*
X147755343Y-63468587D01*
X147612893Y-63679620D01*
X147595429Y-63766700D01*
X143925242Y-63766700D01*
X143760810Y-63656830D01*
X143129000Y-63531155D01*
X142497190Y-63656830D01*
X141961567Y-64014722D01*
X141603675Y-64550345D01*
X141478000Y-65182155D01*
X141478000Y-65246845D01*
X141603675Y-65878655D01*
X141961567Y-66414278D01*
X142079027Y-66492762D01*
X142034145Y-66537645D01*
X141874470Y-66776615D01*
X141818400Y-67058500D01*
X141818400Y-67106943D01*
X141750073Y-67151827D01*
X141607623Y-67362860D01*
X141605783Y-67372030D01*
X141605463Y-67370377D01*
X141465673Y-67157573D01*
X141254640Y-67015123D01*
X141005000Y-66965060D01*
X140305000Y-66965060D01*
X140062877Y-67012037D01*
X139850073Y-67151827D01*
X139707623Y-67362860D01*
X139657560Y-67612500D01*
X139657560Y-68912500D01*
X139704537Y-69154623D01*
X139844327Y-69367427D01*
X140055360Y-69509877D01*
X140305000Y-69559940D01*
X140868400Y-69559940D01*
X140868400Y-70104000D01*
X140924470Y-70385885D01*
X141084145Y-70624855D01*
X141274645Y-70815355D01*
X141513615Y-70975030D01*
X141513616Y-70975030D01*
X141565485Y-70985347D01*
X141604537Y-71186623D01*
X141744327Y-71399427D01*
X141818400Y-71449427D01*
X141818400Y-71498500D01*
X141874470Y-71780385D01*
X141925395Y-71856600D01*
X136398000Y-71856600D01*
X135999473Y-71935872D01*
X135661619Y-72161619D01*
X134899838Y-72923400D01*
X134496141Y-72923400D01*
X134099041Y-72758510D01*
X133619065Y-72758091D01*
X133175465Y-72941382D01*
X132835775Y-73280480D01*
X132651710Y-73723759D01*
X132651291Y-74203735D01*
X132834582Y-74647335D01*
X132888349Y-74701196D01*
X132835775Y-74753680D01*
X132651710Y-75196959D01*
X132651291Y-75676935D01*
X132834582Y-76120535D01*
X132844328Y-76130298D01*
X132786120Y-76118720D01*
X123723400Y-76118720D01*
X123723400Y-76076141D01*
X123888290Y-75679041D01*
X123888709Y-75199065D01*
X123705418Y-74755465D01*
X123651650Y-74701603D01*
X123704225Y-74649120D01*
X123888290Y-74205841D01*
X123888709Y-73725865D01*
X123705418Y-73282265D01*
X123366320Y-72942575D01*
X122923041Y-72758510D01*
X122443065Y-72758091D01*
X122042984Y-72923400D01*
X121361200Y-72923400D01*
X120962674Y-73002671D01*
X120624819Y-73228419D01*
X119913619Y-73939619D01*
X119687872Y-74277473D01*
X119608600Y-74676000D01*
X119608600Y-76962000D01*
X119687872Y-77360527D01*
X119913619Y-77698381D01*
X121183619Y-78968381D01*
X121521473Y-79194128D01*
X121521474Y-79194128D01*
X121920000Y-79273400D01*
X131394638Y-79273400D01*
X133464837Y-81343599D01*
X133111065Y-81343291D01*
X132667465Y-81526582D01*
X132333715Y-81859749D01*
X132002320Y-81527775D01*
X131559041Y-81343710D01*
X131079065Y-81343291D01*
X130635465Y-81526582D01*
X130301715Y-81859749D01*
X129970320Y-81527775D01*
X129527041Y-81343710D01*
X129047065Y-81343291D01*
X128603465Y-81526582D01*
X128269715Y-81859749D01*
X127938320Y-81527775D01*
X127495041Y-81343710D01*
X127015065Y-81343291D01*
X126571465Y-81526582D01*
X126237715Y-81859749D01*
X125906320Y-81527775D01*
X125463041Y-81343710D01*
X124983065Y-81343291D01*
X124539465Y-81526582D01*
X124205715Y-81859749D01*
X123874320Y-81527775D01*
X123431041Y-81343710D01*
X122951065Y-81343291D01*
X122507465Y-81526582D01*
X122167775Y-81865680D01*
X121983710Y-82308959D01*
X121983291Y-82788935D01*
X122166582Y-83232535D01*
X122505680Y-83572225D01*
X122948959Y-83756290D01*
X122956902Y-83756296D01*
X123395214Y-84194608D01*
X123189715Y-84399749D01*
X122858320Y-84067775D01*
X122415041Y-83883710D01*
X121935065Y-83883291D01*
X121491465Y-84066582D01*
X121151775Y-84405680D01*
X120967710Y-84848959D01*
X120967481Y-85111124D01*
X120311303Y-85767303D01*
X120129604Y-86039234D01*
X120065800Y-86360000D01*
X120065800Y-89916000D01*
X120129604Y-90236766D01*
X120311303Y-90508697D01*
X121335800Y-91533194D01*
X121335800Y-92069074D01*
X121281877Y-92079537D01*
X121069073Y-92219327D01*
X120926623Y-92430360D01*
X120876560Y-92680000D01*
X120876560Y-93380000D01*
X120923537Y-93622123D01*
X121063327Y-93834927D01*
X121274360Y-93977377D01*
X121283530Y-93979216D01*
X121281877Y-93979537D01*
X121069073Y-94119327D01*
X120926623Y-94330360D01*
X120876560Y-94580000D01*
X120876560Y-95280000D01*
X120923537Y-95522123D01*
X121063327Y-95734927D01*
X121274360Y-95877377D01*
X121524000Y-95927440D01*
X122824000Y-95927440D01*
X123066123Y-95880463D01*
X123233216Y-95770700D01*
X123402323Y-95770700D01*
X123560360Y-95877377D01*
X123810000Y-95927440D01*
X125110000Y-95927440D01*
X125352123Y-95880463D01*
X125519216Y-95770700D01*
X126174500Y-95770700D01*
X126495265Y-95706896D01*
X126495266Y-95706896D01*
X126767197Y-95525197D01*
X128164954Y-94127440D01*
X129403000Y-94127440D01*
X129645123Y-94080463D01*
X129693373Y-94048767D01*
X131169803Y-95525197D01*
X131441735Y-95706896D01*
X131762500Y-95770700D01*
X132292323Y-95770700D01*
X132450360Y-95877377D01*
X132700000Y-95927440D01*
X134000000Y-95927440D01*
X134242123Y-95880463D01*
X134409216Y-95770700D01*
X134578323Y-95770700D01*
X134736360Y-95877377D01*
X134986000Y-95927440D01*
X136286000Y-95927440D01*
X136528123Y-95880463D01*
X136740927Y-95740673D01*
X136883377Y-95529640D01*
X136933440Y-95280000D01*
X136933440Y-94580000D01*
X136886463Y-94337877D01*
X136746673Y-94125073D01*
X136535640Y-93982623D01*
X136526469Y-93980783D01*
X136528123Y-93980463D01*
X136740927Y-93840673D01*
X136883377Y-93629640D01*
X136933440Y-93380000D01*
X136933440Y-92680000D01*
X136886463Y-92437877D01*
X136746673Y-92225073D01*
X136535640Y-92082623D01*
X136474200Y-92070301D01*
X136474200Y-91440000D01*
X136410396Y-91119235D01*
X136410395Y-91119234D01*
X136228697Y-90847303D01*
X135720697Y-90339303D01*
X134344876Y-88963482D01*
X134630086Y-88963731D01*
X135120380Y-88761146D01*
X135495827Y-88386353D01*
X135699268Y-87896413D01*
X135699731Y-87365914D01*
X135497146Y-86875620D01*
X135122353Y-86500173D01*
X134632413Y-86296732D01*
X134604937Y-86296708D01*
X135048535Y-86113418D01*
X135388225Y-85774320D01*
X135572290Y-85331041D01*
X135572709Y-84851065D01*
X135389418Y-84407465D01*
X135050320Y-84067775D01*
X134607041Y-83883710D01*
X134127065Y-83883291D01*
X133849356Y-83998037D01*
X133942697Y-83904697D01*
X134124395Y-83632766D01*
X134124396Y-83632765D01*
X134161885Y-83444293D01*
X134372225Y-83234320D01*
X134556290Y-82791041D01*
X134556600Y-82435362D01*
X135661619Y-83540381D01*
X137693619Y-85572381D01*
X138031473Y-85798128D01*
X138031474Y-85798128D01*
X138430000Y-85877400D01*
X139268638Y-85877400D01*
X139848484Y-86457246D01*
X139754343Y-86519087D01*
X139611893Y-86730120D01*
X139561830Y-86979760D01*
X139561830Y-88280240D01*
X139608807Y-88522363D01*
X139748597Y-88735167D01*
X139959630Y-88877617D01*
X140209270Y-88927680D01*
X141645252Y-88927680D01*
X141507241Y-89065451D01*
X141363863Y-89410742D01*
X141363537Y-89784618D01*
X141506312Y-90130159D01*
X141770451Y-90394759D01*
X142115742Y-90538137D01*
X142489618Y-90538463D01*
X142510588Y-90529798D01*
X143408400Y-91427610D01*
X143408400Y-91884500D01*
X143408400Y-92085094D01*
X143329372Y-92163985D01*
X143182507Y-92517675D01*
X143182173Y-92900645D01*
X143328420Y-93254591D01*
X143598985Y-93525628D01*
X143952675Y-93672493D01*
X144335645Y-93672827D01*
X144689591Y-93526580D01*
X144960628Y-93256015D01*
X145107493Y-92902325D01*
X145107827Y-92519355D01*
X144961580Y-92165409D01*
X144881600Y-92085289D01*
X144881600Y-91971221D01*
X145161000Y-92227338D01*
X145161000Y-97155000D01*
X159854900Y-97155000D01*
X159854900Y-98933000D01*
X159910970Y-99214885D01*
X160070645Y-99453855D01*
X160451645Y-99834855D01*
X160690615Y-99994530D01*
X160972500Y-100050600D01*
X161163216Y-100050600D01*
X161379085Y-100373670D01*
X161865266Y-100698526D01*
X162438755Y-100812600D01*
X162808245Y-100812600D01*
X163381734Y-100698526D01*
X163867915Y-100373670D01*
X164192771Y-99887489D01*
X164306845Y-99314000D01*
X164192771Y-98740511D01*
X163867915Y-98254330D01*
X163553134Y-98044000D01*
X163867915Y-97833670D01*
X164192771Y-97347489D01*
X164306845Y-96774000D01*
X164192771Y-96200511D01*
X163867915Y-95714330D01*
X163852132Y-95703784D01*
X163881623Y-95698063D01*
X164094427Y-95558273D01*
X164236877Y-95347240D01*
X164286940Y-95097600D01*
X164286940Y-93370400D01*
X164239963Y-93128277D01*
X164100173Y-92915473D01*
X163889140Y-92773023D01*
X163639500Y-92722960D01*
X161607500Y-92722960D01*
X161365377Y-92769937D01*
X161152573Y-92909727D01*
X161010123Y-93120760D01*
X160960060Y-93370400D01*
X160960060Y-93687850D01*
X160471355Y-93199145D01*
X160232385Y-93039470D01*
X160147000Y-93022485D01*
X160147000Y-90805000D01*
X156905263Y-90805000D01*
X156959137Y-90675258D01*
X156959463Y-90301382D01*
X156816688Y-89955841D01*
X156552549Y-89691241D01*
X156207258Y-89547863D01*
X155833382Y-89547537D01*
X155487841Y-89690312D01*
X155429651Y-89748400D01*
X155333556Y-89748400D01*
X155288673Y-89680073D01*
X155077640Y-89537623D01*
X155068469Y-89535783D01*
X155070123Y-89535463D01*
X155282927Y-89395673D01*
X155425377Y-89184640D01*
X155475440Y-88935000D01*
X155475440Y-88235000D01*
X155428463Y-87992877D01*
X155288673Y-87780073D01*
X155077640Y-87637623D01*
X154988916Y-87619830D01*
X155140128Y-87393527D01*
X155219400Y-86995000D01*
X155140128Y-86596473D01*
X154914381Y-86258619D01*
X154842497Y-86210587D01*
X154888940Y-85979000D01*
X154888940Y-85854002D01*
X154914600Y-85725000D01*
X154888940Y-85595997D01*
X154888940Y-85471000D01*
X154841963Y-85228877D01*
X154750474Y-85089603D01*
X154838877Y-84958640D01*
X154888940Y-84709000D01*
X154888940Y-84201000D01*
X154841963Y-83958877D01*
X154702173Y-83746073D01*
X154491140Y-83603623D01*
X154241500Y-83553560D01*
X153098500Y-83553560D01*
X152856377Y-83600537D01*
X152676952Y-83718400D01*
X152357604Y-83718400D01*
X152298049Y-83658741D01*
X152030382Y-83547595D01*
X152310846Y-83491808D01*
X152310847Y-83491808D01*
X152648701Y-83266061D01*
X152831362Y-83083400D01*
X156032638Y-83083400D01*
X156870619Y-83921381D01*
X157208473Y-84147128D01*
X157208474Y-84147128D01*
X157589611Y-84222941D01*
X157382241Y-84429951D01*
X157238863Y-84775242D01*
X157238537Y-85149118D01*
X157381312Y-85494659D01*
X157645451Y-85759259D01*
X157990742Y-85902637D01*
X158364618Y-85902963D01*
X158710159Y-85760188D01*
X158782830Y-85687642D01*
X158775400Y-85725000D01*
X158801060Y-85854002D01*
X158801060Y-85979000D01*
X158848037Y-86221123D01*
X158939525Y-86360396D01*
X158851123Y-86491360D01*
X158801060Y-86741000D01*
X158801060Y-87249000D01*
X158848037Y-87491123D01*
X158987827Y-87703927D01*
X159198860Y-87846377D01*
X159448500Y-87896440D01*
X160591500Y-87896440D01*
X160833623Y-87849463D01*
X161013047Y-87731600D01*
X163830000Y-87731600D01*
X164111885Y-87675530D01*
X164350855Y-87515855D01*
X164668355Y-87198355D01*
X164775874Y-87037440D01*
X164775875Y-87037440D01*
X164797500Y-87037440D01*
X165039623Y-86990463D01*
X165252427Y-86850673D01*
X165394877Y-86639640D01*
X165444940Y-86390000D01*
X165444940Y-102997000D01*
X151257000Y-102997000D01*
X151257000Y-100457000D01*
X145107827Y-100457000D01*
X145107827Y-97599355D01*
X144961580Y-97245409D01*
X144881600Y-97165289D01*
X144881600Y-97144905D01*
X144960628Y-97066015D01*
X145107493Y-96712325D01*
X145107827Y-96329355D01*
X144961580Y-95975409D01*
X144691015Y-95704372D01*
X144337325Y-95557507D01*
X143954355Y-95557173D01*
X143600409Y-95703420D01*
X143329372Y-95973985D01*
X143182507Y-96327675D01*
X143182173Y-96710645D01*
X143328420Y-97064591D01*
X143408400Y-97144710D01*
X143408400Y-97165094D01*
X143329372Y-97243985D01*
X143182507Y-97597675D01*
X143182173Y-97980645D01*
X143328420Y-98334591D01*
X143598985Y-98605628D01*
X143952675Y-98752493D01*
X144335645Y-98752827D01*
X144689591Y-98606580D01*
X144960628Y-98336015D01*
X145107493Y-97982325D01*
X145107827Y-97599355D01*
X145107827Y-100457000D01*
X144145000Y-100457000D01*
X144145000Y-106086158D01*
X143825737Y-106299000D01*
X142567827Y-106299000D01*
X142567827Y-97599355D01*
X142421580Y-97245409D01*
X142331407Y-97155079D01*
X142420628Y-97066015D01*
X142567493Y-96712325D01*
X142567827Y-96329355D01*
X142421580Y-95975409D01*
X142331407Y-95885079D01*
X142420628Y-95796015D01*
X142567493Y-95442325D01*
X142567827Y-95059355D01*
X142421580Y-94705409D01*
X142331407Y-94615079D01*
X142420628Y-94526015D01*
X142567493Y-94172325D01*
X142567827Y-93789355D01*
X142421580Y-93435409D01*
X142151015Y-93164372D01*
X141797325Y-93017507D01*
X141414355Y-93017173D01*
X141060409Y-93163420D01*
X140789457Y-93433900D01*
X140603198Y-93433900D01*
X140556673Y-93363073D01*
X140345640Y-93220623D01*
X140096000Y-93170560D01*
X138796000Y-93170560D01*
X138553877Y-93217537D01*
X138341073Y-93357327D01*
X138198623Y-93568360D01*
X138148560Y-93818000D01*
X138148560Y-94518000D01*
X138195537Y-94760123D01*
X138335327Y-94972927D01*
X138546360Y-95115377D01*
X138796000Y-95165440D01*
X140096000Y-95165440D01*
X140338123Y-95118463D01*
X140550927Y-94978673D01*
X140599239Y-94907100D01*
X140705031Y-94907100D01*
X140642507Y-95057675D01*
X140642173Y-95440645D01*
X140788420Y-95794591D01*
X140878592Y-95884920D01*
X140789372Y-95973985D01*
X140642507Y-96327675D01*
X140642173Y-96710645D01*
X140757558Y-96989900D01*
X140603198Y-96989900D01*
X140556673Y-96919073D01*
X140345640Y-96776623D01*
X140096000Y-96726560D01*
X138796000Y-96726560D01*
X138553877Y-96773537D01*
X138341073Y-96913327D01*
X138198623Y-97124360D01*
X138148560Y-97374000D01*
X138148560Y-98074000D01*
X138195537Y-98316123D01*
X138335327Y-98528927D01*
X138546360Y-98671377D01*
X138796000Y-98721440D01*
X140096000Y-98721440D01*
X140338123Y-98674463D01*
X140550927Y-98534673D01*
X140599239Y-98463100D01*
X140916705Y-98463100D01*
X141058985Y-98605628D01*
X141412675Y-98752493D01*
X141795645Y-98752827D01*
X142149591Y-98606580D01*
X142420628Y-98336015D01*
X142567493Y-97982325D01*
X142567827Y-97599355D01*
X142567827Y-106299000D01*
X137287000Y-106299000D01*
X137287000Y-111125000D01*
X160147000Y-111125000D01*
X160147000Y-108331000D01*
X167005000Y-108331000D01*
X167005000Y-111173260D01*
X136398417Y-111173260D01*
X136398417Y-107472130D01*
X136031834Y-106584931D01*
X135353639Y-105905551D01*
X134467081Y-105537420D01*
X133507130Y-105536583D01*
X132619931Y-105903166D01*
X132415146Y-106107592D01*
X132435340Y-106006900D01*
X132435340Y-104813100D01*
X132388363Y-104570977D01*
X132248573Y-104358173D01*
X132037540Y-104215723D01*
X131787900Y-104165660D01*
X131287286Y-104165660D01*
X131406685Y-103878115D01*
X131407113Y-103388035D01*
X131219963Y-102935097D01*
X130873726Y-102588255D01*
X130421115Y-102400315D01*
X129931035Y-102399887D01*
X129478097Y-102587037D01*
X129158747Y-102905829D01*
X128841726Y-102588255D01*
X128389115Y-102400315D01*
X127899035Y-102399887D01*
X127446097Y-102587037D01*
X127126747Y-102905829D01*
X126809726Y-102588255D01*
X126357115Y-102400315D01*
X125867035Y-102399887D01*
X125414097Y-102587037D01*
X125094747Y-102905829D01*
X124777726Y-102588255D01*
X124325115Y-102400315D01*
X123835035Y-102399887D01*
X123382097Y-102587037D01*
X123035255Y-102933274D01*
X122847315Y-103385885D01*
X122846887Y-103875965D01*
X123034037Y-104328903D01*
X123380274Y-104675745D01*
X123832885Y-104863685D01*
X123987912Y-104863820D01*
X123863315Y-105163885D01*
X123862887Y-105653965D01*
X124050037Y-106106903D01*
X124396274Y-106453745D01*
X124848885Y-106641685D01*
X125338965Y-106642113D01*
X125791903Y-106454963D01*
X126111252Y-106136170D01*
X126428274Y-106453745D01*
X126880885Y-106641685D01*
X127370965Y-106642113D01*
X127823903Y-106454963D01*
X128143252Y-106136170D01*
X128460274Y-106453745D01*
X128912885Y-106641685D01*
X129402965Y-106642113D01*
X129855903Y-106454963D01*
X130020792Y-106290361D01*
X130133427Y-106461827D01*
X130344460Y-106604277D01*
X130594100Y-106654340D01*
X131787900Y-106654340D01*
X131920968Y-106628521D01*
X131572420Y-107467919D01*
X131571583Y-108427870D01*
X131938166Y-109315069D01*
X132616361Y-109994449D01*
X133502919Y-110362580D01*
X134462870Y-110363417D01*
X135350069Y-109996834D01*
X136029449Y-109318639D01*
X136397580Y-108432081D01*
X136398417Y-107472130D01*
X136398417Y-111173260D01*
X123698417Y-111173260D01*
X123698417Y-107472130D01*
X123331834Y-106584931D01*
X122653639Y-105905551D01*
X121767081Y-105537420D01*
X120807130Y-105536583D01*
X119919931Y-105903166D01*
X119240551Y-106581361D01*
X118872420Y-107467919D01*
X118871583Y-108427870D01*
X119238166Y-109315069D01*
X119916361Y-109994449D01*
X120802919Y-110362580D01*
X121762870Y-110363417D01*
X122650069Y-109996834D01*
X123329449Y-109318639D01*
X123697580Y-108432081D01*
X123698417Y-107472130D01*
X123698417Y-111173260D01*
X118826280Y-111173260D01*
X118826280Y-62824360D01*
X167175180Y-62824360D01*
X167175180Y-111173260D01*
M02*
