G04 #@! TF.FileFunction,Soldermask,Bot*
%FSLAX46Y46*%
G04 Gerber Fmt 4.6, Leading zero omitted, Abs format (unit mm)*
G04 Created by KiCad (PCBNEW (2015-03-16 BZR 5519)-product) date Mon 23 Mar 2015 09:38:02 AM CET*
%MOMM*%
G01*
G04 APERTURE LIST*
%ADD10C,0.150000*%
%ADD11C,4.064000*%
%ADD12C,1.701800*%
%ADD13R,1.701800X1.701800*%
%ADD14C,1.651000*%
%ADD15C,4.013200*%
%ADD16C,2.336800*%
%ADD17C,1.905000*%
%ADD18R,2.540000X2.235200*%
%ADD19O,2.540000X2.235200*%
%ADD20R,2.540000X2.540000*%
%ADD21O,2.540000X2.540000*%
G04 APERTURE END LIST*
D10*
D11*
X121285000Y-107950000D03*
X133985000Y-107950000D03*
D12*
X124079000Y-103632000D03*
X126111000Y-103632000D03*
X128143000Y-103632000D03*
X130175000Y-103632000D03*
X125095000Y-105410000D03*
X127127000Y-105410000D03*
X129159000Y-105410000D03*
D13*
X131191000Y-105410000D03*
D14*
X123190000Y-82550000D03*
X125222000Y-82550000D03*
X127254000Y-82550000D03*
X129286000Y-82550000D03*
X131318000Y-82550000D03*
X133350000Y-82550000D03*
X122174000Y-85090000D03*
X124206000Y-85090000D03*
X126238000Y-85090000D03*
X130302000Y-85090000D03*
X132334000Y-85090000D03*
X134366000Y-85090000D03*
D15*
X121920000Y-67310000D03*
X134620000Y-67310000D03*
D16*
X120205500Y-64135000D03*
X136334500Y-64135000D03*
D14*
X122682000Y-75438000D03*
X133858000Y-75438000D03*
X122682000Y-73964800D03*
X133858000Y-73964800D03*
D17*
X134366000Y-87630000D03*
X131826000Y-87630000D03*
X122174000Y-87630000D03*
X124714000Y-87630000D03*
D18*
X162623500Y-94234000D03*
D19*
X162623500Y-96774000D03*
X162623500Y-99314000D03*
D20*
X140589000Y-65214500D03*
D21*
X143129000Y-65214500D03*
D20*
X158369000Y-108966000D03*
D21*
X160909000Y-108966000D03*
D20*
X161099500Y-65151000D03*
D21*
X163639500Y-65151000D03*
M02*
