G04 #@! TF.FileFunction,Soldermask,Top*
%FSLAX46Y46*%
G04 Gerber Fmt 4.6, Leading zero omitted, Abs format (unit mm)*
G04 Created by KiCad (PCBNEW (2015-03-16 BZR 5519)-product) date Mon 23 Mar 2015 09:38:02 AM CET*
%MOMM*%
G01*
G04 APERTURE LIST*
%ADD10C,0.150000*%
%ADD11C,1.163320*%
%ADD12C,4.064000*%
%ADD13C,1.701800*%
%ADD14R,1.701800X1.701800*%
%ADD15C,1.651000*%
%ADD16C,4.013200*%
%ADD17C,2.336800*%
%ADD18C,1.905000*%
%ADD19R,2.009140X1.808480*%
%ADD20R,5.508000X1.508000*%
%ADD21R,3.008000X1.508000*%
%ADD22R,1.758000X1.508000*%
%ADD23R,3.807460X3.007360*%
%ADD24R,2.308860X3.007360*%
%ADD25R,2.540000X2.235200*%
%ADD26O,2.540000X2.235200*%
%ADD27R,2.540000X2.540000*%
%ADD28O,2.540000X2.540000*%
%ADD29R,1.808000X1.208000*%
%ADD30R,1.208000X1.808000*%
%ADD31R,1.651000X1.016000*%
G04 APERTURE END LIST*
D10*
D11*
X149225000Y-105410000D03*
X147955000Y-105410000D03*
X146685000Y-105410000D03*
X145415000Y-105410000D03*
X144145000Y-105410000D03*
X142875000Y-105410000D03*
X141605000Y-105410000D03*
X149225000Y-104140000D03*
X147955000Y-104140000D03*
X146685000Y-104140000D03*
X145415000Y-104140000D03*
X144145000Y-104140000D03*
X142875000Y-104140000D03*
X141605000Y-104140000D03*
X149225000Y-102870000D03*
X147955000Y-102870000D03*
X146685000Y-102870000D03*
X145415000Y-102870000D03*
X144145000Y-102870000D03*
X142875000Y-102870000D03*
X141605000Y-102870000D03*
X149225000Y-101600000D03*
X147955000Y-101600000D03*
X146685000Y-101600000D03*
X145415000Y-101600000D03*
X144145000Y-101600000D03*
X142875000Y-101600000D03*
X141605000Y-101600000D03*
X149225000Y-100330000D03*
X147955000Y-100330000D03*
X146685000Y-100330000D03*
X145415000Y-100330000D03*
X144145000Y-100330000D03*
X142875000Y-100330000D03*
X141605000Y-100330000D03*
X149225000Y-99060000D03*
X147955000Y-99060000D03*
X146685000Y-99060000D03*
X145415000Y-99060000D03*
X144145000Y-99060000D03*
X142875000Y-99060000D03*
X141605000Y-99060000D03*
X149225000Y-97790000D03*
X147955000Y-97790000D03*
X146685000Y-97790000D03*
X145415000Y-97790000D03*
X144145000Y-97790000D03*
X142875000Y-97790000D03*
X141605000Y-97790000D03*
X144145000Y-96520000D03*
X142875000Y-96520000D03*
X141605000Y-96520000D03*
X149225000Y-95250000D03*
X147955000Y-95250000D03*
X146685000Y-95250000D03*
X144145000Y-95250000D03*
X142875000Y-95250000D03*
X141605000Y-95250000D03*
X149225000Y-93980000D03*
X147955000Y-93980000D03*
X146685000Y-93980000D03*
X144145000Y-93980000D03*
X142875000Y-93980000D03*
X141605000Y-93980000D03*
X149225000Y-92710000D03*
X147955000Y-92710000D03*
X146685000Y-92710000D03*
X144145000Y-92710000D03*
X142875000Y-92710000D03*
X141605000Y-92710000D03*
D12*
X121285000Y-107950000D03*
X133985000Y-107950000D03*
D13*
X124079000Y-103632000D03*
X126111000Y-103632000D03*
X128143000Y-103632000D03*
X130175000Y-103632000D03*
X125095000Y-105410000D03*
X127127000Y-105410000D03*
X129159000Y-105410000D03*
D14*
X131191000Y-105410000D03*
D15*
X123190000Y-82550000D03*
X125222000Y-82550000D03*
X127254000Y-82550000D03*
X129286000Y-82550000D03*
X131318000Y-82550000D03*
X133350000Y-82550000D03*
X122174000Y-85090000D03*
X124206000Y-85090000D03*
X126238000Y-85090000D03*
X130302000Y-85090000D03*
X132334000Y-85090000D03*
X134366000Y-85090000D03*
D16*
X121920000Y-67310000D03*
X134620000Y-67310000D03*
D17*
X120205500Y-64135000D03*
X136334500Y-64135000D03*
D15*
X122682000Y-75438000D03*
X133858000Y-75438000D03*
X122682000Y-73964800D03*
X133858000Y-73964800D03*
D18*
X134366000Y-87630000D03*
X131826000Y-87630000D03*
X122174000Y-87630000D03*
X124714000Y-87630000D03*
D19*
X149860000Y-87630000D03*
X149860000Y-82529680D03*
X140959840Y-82529680D03*
X140959840Y-87630000D03*
X149860000Y-80010000D03*
X149860000Y-74909680D03*
X140959840Y-74909680D03*
X140959840Y-80010000D03*
D20*
X153670000Y-93720000D03*
X153670000Y-99320000D03*
D21*
X152400000Y-105005000D03*
X152400000Y-102005000D03*
D22*
X128778000Y-92980000D03*
X128778000Y-94980000D03*
D23*
X149860000Y-65178940D03*
X149860000Y-71981060D03*
D24*
X154305000Y-79468980D03*
X154305000Y-75471020D03*
D25*
X162623500Y-94234000D03*
D26*
X162623500Y-96774000D03*
X162623500Y-99314000D03*
D27*
X140589000Y-65214500D03*
D28*
X143129000Y-65214500D03*
D27*
X158369000Y-108966000D03*
D28*
X160909000Y-108966000D03*
D27*
X161099500Y-65151000D03*
D28*
X163639500Y-65151000D03*
D29*
X139446000Y-97724000D03*
X139446000Y-95824000D03*
X139446000Y-94168000D03*
X139446000Y-92268000D03*
X154178000Y-88585000D03*
X154178000Y-90485000D03*
X161925000Y-86040000D03*
X161925000Y-84140000D03*
X164147500Y-86040000D03*
X164147500Y-84140000D03*
D30*
X142555000Y-68262500D03*
X140655000Y-68262500D03*
X142555000Y-70294500D03*
X140655000Y-70294500D03*
D29*
X122174000Y-94930000D03*
X122174000Y-93030000D03*
X124460000Y-94930000D03*
X124460000Y-93030000D03*
X133350000Y-94930000D03*
X133350000Y-93030000D03*
X135636000Y-94930000D03*
X135636000Y-93030000D03*
D31*
X153670000Y-86995000D03*
X153670000Y-85725000D03*
X153670000Y-84455000D03*
X153670000Y-83185000D03*
X160020000Y-83185000D03*
X160020000Y-84455000D03*
X160020000Y-85725000D03*
X160020000Y-86995000D03*
M02*
